<svg xmlns="http://www.w3.org/2000/svg" version="1.1" xmlns:xlink="http://www.w3.org/1999/xlink" xmlns:svgjs="http://svgjs.dev/svgjs" width="2000" height="277" viewBox="0 0 2000 277"><g transform="matrix(1,0,0,1,-1.2121212121212466,-0.3408993959437794)"><svg viewBox="0 0 396 55" data-background-color="#000000" preserveAspectRatio="xMidYMid meet" height="277" width="2000" xmlns="http://www.w3.org/2000/svg" xmlns:xlink="http://www.w3.org/1999/xlink"><g id="tight-bounds" transform="matrix(1,0,0,1,0.2400000000000091,0.06768760569281085)"><svg viewBox="0 0 395.52 54.86462478861441" height="54.86462478861441" width="395.52"><g><svg viewBox="0 0 466.19740588469915 64.66865329512893" height="54.86462478861441" width="395.52"><g transform="matrix(1,0,0,1,70.67740588469916,0)"><svg viewBox="0 0 395.52 64.66865329512893" height="64.66865329512893" width="395.52"><g id="textblocktransform"><svg viewBox="0 0 395.52 64.66865329512893" height="64.66865329512893" width="395.52" id="textblock"><g><svg viewBox="0 0 395.52 64.66865329512893" height="64.66865329512893" width="395.52"><g transform="matrix(1,0,0,1,0,0)"><svg width="395.52" viewBox="2.83 -33.84 272.63 44.580000000000005" height="64.66865329512893" data-palette-color="url(#24efe7d8-aa12-43d5-ba94-c289a845ba7d)"></svg></g></svg></g></svg></g></svg></g><g transform="matrix(1,0,0,1,0,4.628982202865323)"><svg viewBox="0 0 55.410688889398294 55.41068888939829" height="55.41068888939829" width="55.410688889398294"><g><svg></svg></g><g id="icon-0"><svg viewBox="0 0 55.410688889398294 55.41068888939829" height="55.41068888939829" width="55.410688889398294"><g></g><g transform="matrix(1,0,0,1,11.082137777879662,11.08232247401942)"><svg viewBox="0 0 33.24641333363897 33.246043941359446" height="33.246043941359446" width="33.24641333363897"><g><svg xmlns="http://www.w3.org/2000/svg" xmlns:xlink="http://www.w3.org/1999/xlink" version="1.1" x="0" y="0" viewBox="5 5 90.003 90.002" enable-background="new 0 0 100 100" xml:space="preserve" height="33.246043941359446" width="33.24641333363897" class="icon-dxe-0" data-fill-palette-color="quaternary" id="dxe-0"><g fill="#000000" data-fill-palette-color="quaternary"><path d="M5.04 51.306C5.051 51.693 5.056 52.082 5.077 52.467 5.102 52.933 5.143 53.399 5.183 53.865A43 43 0 0 0 5.465 56.376C5.536 56.874 5.619 57.368 5.706 57.861 5.766 58.202 5.82 58.543 5.888 58.882 6.056 59.721 6.246 60.552 6.46 61.374 6.499 61.523 6.546 61.671 6.587 61.82 6.788 62.562 7.009 63.295 7.247 64.021 7.309 64.211 7.374 64.399 7.439 64.589 7.704 65.362 7.988 66.126 8.293 66.88L8.323 66.957 8.389 67.124A45 45 0 0 0 11.004 72.439L11.035 72.497 11.119 72.632C11.413 73.135 11.716 73.632 12.029 74.123L12.06 74.174 12.061 74.175C12.226 74.434 12.389 74.694 12.559 74.95 12.91 75.476 13.275 75.991 13.647 76.501 13.875 76.814 14.103 77.126 14.339 77.433 14.501 77.644 14.671 77.847 14.836 78.054 15.048 78.319 15.258 78.584 15.475 78.844 15.713 79.129 15.952 79.414 16.198 79.694 16.345 79.862 16.494 80.027 16.643 80.193 16.817 80.385 17 80.569 17.177 80.759 17.507 81.111 17.833 81.464 18.175 81.806L18.194 81.825C18.535 82.166 18.887 82.491 19.237 82.819 19.427 82.998 19.613 83.182 19.807 83.357 19.973 83.507 20.139 83.656 20.307 83.804 20.586 84.049 20.869 84.287 21.153 84.524 21.413 84.742 21.679 84.952 21.944 85.164 22.153 85.33 22.356 85.5 22.568 85.663 22.875 85.899 23.186 86.127 23.498 86.354 24.008 86.726 24.523 87.092 25.049 87.443 25.322 87.625 25.599 87.798 25.876 87.973 26.366 88.285 26.862 88.588 27.365 88.882L27.502 88.967 27.562 88.999A45 45 0 0 0 32.874 91.612L33.043 91.679 33.117 91.708C33.87 92.013 34.634 92.297 35.407 92.562 35.597 92.627 35.787 92.693 35.978 92.755 36.703 92.993 37.435 93.213 38.175 93.414 38.325 93.455 38.474 93.502 38.624 93.542 39.446 93.756 40.277 93.946 41.116 94.114 41.455 94.182 41.795 94.236 42.135 94.296 42.629 94.383 43.124 94.466 43.624 94.537A43 43 0 0 0 46.138 94.818C46.603 94.858 47.067 94.899 47.532 94.924 47.921 94.945 48.314 94.95 48.705 94.962 49.123 94.974 49.541 95.002 49.959 95.002L50 94.999 50.041 95C50.458 95 50.876 94.972 51.294 94.96 51.443 94.956 51.592 94.954 51.74 94.949L51.877 94.963 52.106 94.94C52.226 94.934 52.347 94.93 52.467 94.923 52.931 94.898 53.395 94.857 53.859 94.817A43 43 0 0 0 56.373 94.535C56.874 94.464 57.37 94.38 57.865 94.293 58.204 94.233 58.543 94.18 58.881 94.112 59.721 93.944 60.553 93.753 61.375 93.539 61.523 93.5 61.671 93.453 61.819 93.413A45 45 0 0 0 66.884 91.705L66.957 91.677 67.124 91.611A45 45 0 0 0 72.439 88.996L72.498 88.964 72.634 88.879C73.137 88.585 73.634 88.282 74.125 87.969 74.401 87.794 74.678 87.621 74.95 87.44A44 44 0 0 0 76.503 86.35C76.815 86.123 77.126 85.895 77.432 85.66 77.644 85.498 77.847 85.327 78.055 85.162 78.32 84.95 78.586 84.74 78.846 84.522 79.13 84.284 79.414 84.047 79.693 83.802 79.861 83.655 80.027 83.505 80.193 83.356 80.386 83.181 80.571 82.998 80.761 82.819 81.112 82.49 81.464 82.165 81.805 81.824L81.825 81.804C82.166 81.463 82.492 81.11 82.82 80.76 82.998 80.57 83.182 80.385 83.357 80.192A35 35 0 0 0 84.524 78.845C84.742 78.585 84.952 78.319 85.164 78.054 85.33 77.846 85.5 77.643 85.662 77.431 85.897 77.126 86.123 76.816 86.349 76.506 86.723 75.994 87.089 75.477 87.442 74.949 87.623 74.676 87.796 74.4 87.971 74.123 88.283 73.633 88.586 73.136 88.88 72.633L88.965 72.496 88.997 72.436A50 50 0 0 0 89.744 71.091C89.88 70.928 89.981 70.736 90.035 70.523A45 45 0 0 0 91.612 67.121L91.678 66.955 91.707 66.882A45 45 0 0 0 92.754 64.023C92.993 63.295 93.214 62.559 93.416 61.815 93.456 61.668 93.502 61.522 93.541 61.375 93.755 60.552 93.946 59.72 94.114 58.88 94.182 58.543 94.235 58.204 94.295 57.866A43 43 0 0 0 94.7 55.09C94.746 54.681 94.784 54.27 94.819 53.858 94.859 53.394 94.9 52.931 94.925 52.467 94.946 52.078 94.951 51.684 94.963 51.292 94.975 50.875 95.003 50.457 95.003 50.04L94.999 50 95 49.959C95 49.542 94.972 49.123 94.96 48.705 94.949 48.314 94.944 47.921 94.923 47.533 94.898 47.068 94.857 46.604 94.817 46.139A45 45 0 0 0 94.699 44.911 47 47 0 0 0 94.536 43.625 45 45 0 0 0 94.295 42.139C94.235 41.798 94.181 41.457 94.113 41.117A45 45 0 0 0 93.541 38.627C93.501 38.475 93.454 38.325 93.412 38.174A45 45 0 0 0 91.708 33.123L91.678 33.045 91.611 32.876A45 45 0 0 0 89.297 28.091C89.199 27.914 89.098 27.738 88.998 27.563L88.967 27.505 88.882 27.368A46 46 0 0 0 88.139 26.137 1.5 1.5 0 0 0 87.8 25.593 46 46 0 0 0 86.36 23.507 45 45 0 0 0 85.664 22.57C85.501 22.358 85.331 22.155 85.165 21.946 84.954 21.682 84.744 21.417 84.527 21.158A35 35 0 0 0 83.359 19.81C83.185 19.617 83.002 19.433 82.824 19.243 82.495 18.892 82.168 18.539 81.826 18.197L81.807 18.178C81.465 17.835 81.111 17.509 80.759 17.179 80.57 17.002 80.387 16.82 80.195 16.646 80.029 16.496 79.864 16.347 79.696 16.2 79.416 15.954 79.131 15.715 78.845 15.476 78.586 15.259 78.321 15.05 78.057 14.839 77.849 14.674 77.646 14.504 77.435 14.341 77.123 14.101 76.806 13.869 76.488 13.638A45 45 0 0 0 74.953 12.561C74.678 12.378 74.4 12.204 74.122 12.028 73.632 11.716 73.136 11.413 72.634 11.12L72.499 11.036 72.442 11.006C72.265 10.905 72.089 10.804 71.911 10.705A45 45 0 0 0 67.129 8.392L66.957 8.324 66.876 8.292A45 45 0 0 0 61.842 6.594C61.684 6.551 61.528 6.501 61.37 6.46A45 45 0 0 0 58.89 5.89C58.542 5.82 58.193 5.765 57.845 5.703 57.361 5.618 56.875 5.536 56.386 5.466A43 43 0 0 0 53.879 5.184 45 45 0 0 0 52.463 5.076C52.092 5.056 51.718 5.051 51.344 5.04 50.908 5.029 50.474 5 50.041 5L50 5.001 49.959 5C49.525 5 49.091 5.029 48.657 5.041 48.284 5.052 47.91 5.057 47.539 5.077 47.066 5.103 46.594 5.144 46.121 5.185 45.72 5.219 45.32 5.256 44.923 5.3 44.486 5.349 44.05 5.404 43.613 5.466 43.125 5.535 42.642 5.617 42.159 5.702 41.809 5.764 41.459 5.819 41.109 5.889 40.275 6.056 39.449 6.245 38.632 6.458 38.471 6.5 38.311 6.551 38.149 6.595A45 45 0 0 0 33.126 8.29L33.044 8.322 32.868 8.392A45 45 0 0 0 27.559 11.004L27.502 11.035 27.367 11.119C26.865 11.412 26.369 11.715 25.88 12.026 25.602 12.203 25.322 12.377 25.047 12.56 24.524 12.909 24.012 13.272 23.505 13.642 23.19 13.871 22.876 14.101 22.566 14.339 22.354 14.501 22.152 14.671 21.944 14.837 21.68 15.048 21.414 15.258 21.155 15.475A35 35 0 0 0 19.807 16.643C19.614 16.818 19.429 17.001 19.239 17.179 18.888 17.508 18.536 17.834 18.194 18.175L18.175 18.194C17.833 18.536 17.506 18.889 17.177 19.241 17 19.43 16.817 19.615 16.643 19.807A45 45 0 0 0 15.474 21.157C15.257 21.416 15.048 21.681 14.837 21.945 14.672 22.153 14.502 22.356 14.34 22.567 14.101 22.878 13.87 23.193 13.64 23.51A45 45 0 0 0 12.56 25.049C12.377 25.324 12.203 25.603 12.027 25.881 11.715 26.371 11.413 26.866 11.119 27.369L11.035 27.504 11.005 27.56A46 46 0 0 0 8.391 32.873L8.323 33.045 8.292 33.125A43 43 0 0 0 7.443 35.403 45 45 0 0 0 6.593 38.164C6.55 38.319 6.501 38.474 6.46 38.63A45 45 0 0 0 5.889 41.115C5.82 41.458 5.766 41.802 5.705 42.146A41 41 0 0 0 5.185 46.134C5.145 46.601 5.104 47.067 5.078 47.535 5.057 47.919 5.052 48.307 5.041 48.693 5.029 49.115 5 49.538 5 49.959L5.001 50 5 50.041C5 50.462 5.029 50.884 5.04 51.306M7.911 50C7.911 49.718 7.927 49.441 7.932 49.16 7.943 48.644 7.952 48.129 7.982 47.615 7.999 47.311 8.028 47.011 8.051 46.708A44 44 0 0 1 8.303 44.31C8.41 43.533 8.531 42.758 8.68 41.989L8.692 41.92A42 42 0 0 1 10.06 36.717L10.075 36.672C10.336 35.888 10.625 35.114 10.932 34.346L11.008 34.141V34.14C11.163 33.759 11.342 33.389 11.508 33.012 11.727 32.516 11.937 32.018 12.178 31.527L12.286 31.321H35.862L31.37 39.046 31.351 39.078 31.309 39.145C31.244 39.248 31.199 39.358 31.163 39.469L25.496 49.262 13.235 70.456A43 43 0 0 1 12.419 68.928C12.342 68.774 12.255 68.625 12.18 68.47 11.938 67.977 11.727 67.476 11.507 66.977 11.343 66.603 11.164 66.235 11.011 65.858L10.928 65.637A43 43 0 0 1 10.075 63.323L10.062 63.283A43 43 0 0 1 8.693 58.077L8.682 58.014A42 42 0 0 1 8.051 53.289C8.028 52.988 7.999 52.688 7.982 52.385 7.952 51.87 7.943 51.354 7.932 50.838 7.926 50.558 7.911 50.281 7.911 50M15.334 26.148A42 42 0 0 1 16.541 24.477C16.708 24.258 16.88 24.043 17.051 23.828L17.179 23.668C17.469 23.306 17.765 22.952 18.065 22.601 18.249 22.387 18.431 22.172 18.618 21.962 18.803 21.755 18.994 21.551 19.184 21.347 19.495 21.011 19.808 20.677 20.129 20.353L20.239 20.237 20.374 20.108C20.691 19.794 21.018 19.489 21.346 19.184 21.551 18.994 21.755 18.802 21.963 18.616 22.173 18.428 22.388 18.246 22.602 18.062 22.952 17.762 23.306 17.466 23.668 17.177L23.825 17.05C24.041 16.878 24.257 16.705 24.477 16.537A43 43 0 0 1 26.147 15.331C26.293 15.231 26.435 15.124 26.582 15.026 27.286 14.555 28.012 14.106 28.752 13.673L28.875 13.598 29.091 13.474A43 43 0 0 1 31.08 12.412C31.231 12.336 31.377 12.251 31.529 12.177 32.023 11.935 32.524 11.724 33.023 11.503 33.396 11.339 33.763 11.161 34.14 11.008L34.15 11.004 34.353 10.928A42 42 0 0 1 36.67 10.074L36.722 10.056A42 42 0 0 1 41.917 8.69L42.002 8.675A43 43 0 0 1 46.698 8.048C46.9 8.032 47.101 8.015 47.303 8.002L59.106 28.417H13.883A42 42 0 0 1 15.029 26.579C15.127 26.436 15.233 26.294 15.334 26.148M53.301 8.052A43 43 0 0 1 55.694 8.305C56.466 8.411 57.235 8.531 57.999 8.68L58.082 8.695C59.841 9.04 61.577 9.496 63.278 10.061L63.329 10.078C64.109 10.338 64.879 10.626 65.643 10.931L65.852 11.009 65.859 11.012C66.236 11.165 66.603 11.343 66.975 11.507 67.474 11.728 67.976 11.939 68.47 12.181 68.623 12.255 68.77 12.341 68.922 12.417A43 43 0 0 1 70.907 13.476L71.124 13.601 71.249 13.677C71.989 14.11 72.714 14.559 73.417 15.029 73.564 15.127 73.706 15.234 73.852 15.334 74.421 15.725 74.978 16.126 75.522 16.54 75.741 16.708 75.957 16.88 76.172 17.051L76.331 17.179C76.693 17.469 77.048 17.765 77.398 18.065 77.612 18.248 77.827 18.43 78.037 18.618 78.245 18.804 78.448 18.995 78.653 19.185 78.988 19.496 79.323 19.809 79.646 20.129L79.761 20.239 79.867 20.35C80.189 20.675 80.502 21.01 80.815 21.347 81.005 21.552 81.197 21.756 81.383 21.964 81.57 22.173 81.751 22.387 81.934 22.6 82.234 22.951 82.531 23.306 82.821 23.668L82.953 23.832C83.123 24.046 83.293 24.259 83.459 24.476 83.872 25.019 84.273 25.576 84.663 26.144 84.765 26.292 84.873 26.435 84.972 26.584L85.082 26.761 73.284 47.15 62.879 29.146 50.611 7.926 50.871 7.933C51.374 7.944 51.878 7.953 52.379 7.982 52.689 7.999 52.994 8.028 53.301 8.052M87.82 31.531C88.06 32.02 88.269 32.517 88.488 33.011 88.654 33.389 88.835 33.761 88.99 34.143L89.064 34.342C89.372 35.113 89.663 35.891 89.925 36.678L89.938 36.716A42 42 0 0 1 91.307 41.924L91.318 41.984A43 43 0 0 1 91.95 46.715C91.973 47.014 92.002 47.312 92.018 47.614 92.048 48.134 92.058 48.656 92.069 49.178 92.074 49.453 92.09 49.725 92.09 50.001S92.074 50.548 92.069 50.822C92.058 51.345 92.048 51.867 92.018 52.388 92.001 52.689 91.973 52.986 91.95 53.284A41 41 0 0 1 91.697 55.684 42 42 0 0 1 91.317 58.021L91.307 58.075A42 42 0 0 1 89.937 63.287L89.927 63.318C89.666 64.101 89.377 64.875 89.071 65.642L88.99 65.858C88.836 66.237 88.657 66.606 88.492 66.981 88.272 67.478 88.061 67.978 87.82 68.47L87.691 68.718H64.15L74.54 50.778 86.795 29.6C87.065 30.086 87.329 30.573 87.577 31.065 87.655 31.221 87.743 31.373 87.82 31.531M84.66 73.861A43 43 0 0 1 83.459 75.524C83.296 75.737 83.129 75.947 82.962 76.157L82.816 76.338C82.527 76.699 82.232 77.052 81.933 77.401 81.752 77.612 81.572 77.824 81.387 78.032 81.199 78.242 81.006 78.449 80.813 78.656 80.476 79.019 80.139 79.382 79.791 79.731L79.763 79.761 79.76 79.764C79.401 80.123 79.027 80.469 78.653 80.816 78.448 81.006 78.244 81.198 78.036 81.384S77.616 81.75 77.405 81.931C77.053 82.232 76.697 82.529 76.334 82.82L76.165 82.956C75.953 83.124 75.742 83.293 75.527 83.457 74.985 83.87 74.429 84.27 73.862 84.659 73.713 84.762 73.567 84.871 73.417 84.971 72.719 85.437 72 85.882 71.266 86.312L71.118 86.402 70.909 86.522C70.256 86.896 69.596 87.242 68.933 87.577 68.778 87.655 68.627 87.742 68.472 87.818 67.979 88.059 67.479 88.27 66.981 88.491 66.607 88.656 66.238 88.834 65.86 88.988L65.644 89.069C64.878 89.375 64.105 89.664 63.323 89.925L63.287 89.937A42 42 0 0 1 58.079 91.306L58.019 91.317A43 43 0 0 1 53.289 91.949C53.096 91.964 52.904 91.981 52.711 91.993L40.87 71.621H86.092A43 43 0 0 1 84.973 73.416C84.872 73.566 84.763 73.712 84.66 73.861M46.715 91.95A41 41 0 0 1 44.316 91.697 43 43 0 0 1 41.985 91.318L41.924 91.307A42 42 0 0 1 36.716 89.938L36.681 89.926A43 43 0 0 1 34.35 89.067L34.145 88.99C33.764 88.835 33.392 88.655 33.015 88.489 32.52 88.27 32.022 88.06 31.532 87.82 31.375 87.743 31.223 87.655 31.066 87.576A43 43 0 0 1 29.093 86.523L28.884 86.403 28.739 86.315A42 42 0 0 1 26.586 84.973C26.435 84.872 26.29 84.763 26.14 84.66A41 41 0 0 1 24.476 83.458C24.262 83.295 24.052 83.126 23.841 82.959L23.666 82.818C23.304 82.528 22.949 82.232 22.599 81.932 22.388 81.751 22.176 81.571 21.969 81.386 21.759 81.198 21.553 81.005 21.346 80.813A40 40 0 0 1 20.287 79.806L20.24 79.761 20.214 79.733A41 41 0 0 1 19.185 78.65C18.995 78.445 18.803 78.241 18.618 78.034S18.253 77.614 18.071 77.403C17.769 77.051 17.471 76.694 17.18 76.33L17.046 76.164C16.878 75.952 16.709 75.741 16.544 75.526A42 42 0 0 1 15.337 73.854C15.236 73.707 15.129 73.565 15.03 73.417L14.951 73.29 26.75 52.898 37.089 70.892 37.092 70.898 49.396 92.074 49.176 92.068C48.654 92.057 48.132 92.047 47.611 92.017 47.312 92.001 47.014 91.973 46.715 91.95M39.234 31.324H60.785L71.607 50.049 60.795 68.717H39.188L28.43 49.994z" fill="#000000" data-fill-palette-color="quaternary"></path></g></svg></g></svg></g></svg></g></svg></g></svg></g><defs></defs><mask id="cfc0a583-fa23-4eb7-8420-326763f255e5"><g id="SvgjsG5977"><svg viewBox="0 0 395.52 54.86462478861441" height="54.86462478861441" width="395.52"><g><svg viewBox="0 0 466.19740588469915 64.66865329512893" height="54.86462478861441" width="395.52"><g transform="matrix(1,0,0,1,70.67740588469916,0)"><svg viewBox="0 0 395.52 64.66865329512893" height="64.66865329512893" width="395.52"><g id="SvgjsG5976"><svg viewBox="0 0 395.52 64.66865329512893" height="64.66865329512893" width="395.52" id="SvgjsSvg5975"><g><svg viewBox="0 0 395.52 64.66865329512893" height="64.66865329512893" width="395.52"><g transform="matrix(1,0,0,1,0,0)"><svg width="395.52" viewBox="2.83 -33.84 272.63 44.580000000000005" height="64.66865329512893" data-palette-color="url(#24efe7d8-aa12-43d5-ba94-c289a845ba7d)"><path d="M9.62 0.39L9.62 0.39Q7.86 0.39 6.13-0.02 4.39-0.44 3.08-1.12L3.08-1.12 2.83-6.2 5.03-6.2 6.01-2.69Q7.62-1.46 9.91-1.46L9.91-1.46Q11.62-1.46 12.74-2.32 13.87-3.17 13.87-4.64L13.87-4.64Q13.87-6.01 12.89-6.98 11.91-7.96 9.23-9.13L9.23-9.13Q5.81-10.64 4.42-12.04 3.03-13.43 3.03-15.53L3.03-15.53Q3.03-17.19 4-18.48 4.98-19.78 6.74-20.51 8.5-21.24 10.79-21.24L10.79-21.24Q12.11-21.24 13.48-21.04 14.84-20.85 15.77-20.46L15.77-20.46 16.31-15.53 14.26-15.53 13.04-18.8Q12.55-19.09 11.87-19.26 11.18-19.43 10.4-19.43L10.4-19.43Q8.59-19.43 7.52-18.58 6.45-17.72 6.45-16.41L6.45-16.41Q6.45-14.89 7.57-13.96 8.69-13.04 11.52-11.62L11.52-11.62Q14.75-10.11 16.02-8.72 17.29-7.32 17.29-5.37L17.29-5.37Q17.29-2.88 15.11-1.25 12.94 0.39 9.62 0.39ZM30.47 0L21.19 0 21.09-1.61 24.12-2.29Q24.22-2.88 24.24-3.93 24.27-4.98 24.29-6.84 24.31-8.69 24.31-11.67L24.31-11.67 24.31-17.72Q24.31-19.38 24.29-21.39 24.27-23.39 24.24-25.24 24.22-27.1 24.19-28.42 24.17-29.74 24.17-30.08L24.17-30.08 20.55-30.57 20.46-31.93 26.71-33.84 27.49-33.2Q27.44-31.69 27.41-30.15 27.39-28.61 27.37-26.83 27.34-25.05 27.32-22.88 27.29-20.7 27.29-17.87L27.29-17.87 27.44-17.82Q29.2-19.68 30.81-20.46 32.42-21.24 34.32-21.24L34.32-21.24Q36.03-21.24 37.6-20.36 39.16-19.48 40.18-17.63 41.21-15.77 41.21-12.84L41.21-12.84 41.21-7.47Q41.21-5.66 41.31-4.27 41.4-2.88 41.5-2.29L41.5-2.29 44.53-1.61 44.48 0 35.3 0 35.2-1.61 38.03-2.29Q38.08-2.69 38.11-3.22 38.13-3.76 38.16-4.66 38.18-5.57 38.18-7.03L38.18-7.03 38.18-12.6Q38.18-14.79 37.45-16.14 36.72-17.48 35.54-18.09 34.37-18.7 33.05-18.7L33.05-18.7Q31.35-18.7 29.88-17.85 28.42-16.99 27.34-15.48L27.34-15.48 27.34-8.06Q27.34-5.71 27.41-4.2 27.49-2.69 27.54-2.29L27.54-2.29 30.56-1.61 30.47 0ZM67.38-3.13L67.38-3.13 70.45-2.34 70.45-0.83 64.64 0.49 64.11-0.1 64.16-3.08 64.01-3.13Q62.54-1.17 61.1-0.42 59.66 0.34 57.95 0.34L57.95 0.34Q54.78 0.34 52.56-1.61 50.34-3.56 50.34-7.52L50.34-7.52 50.34-11.77Q50.34-13.23 50.29-14.62 50.24-16.02 50.14-17.33L50.14-17.33 46.82-18.02 46.82-19.48 52.83-21.14 53.51-20.41Q53.46-18.9 53.41-17.29 53.36-15.67 53.36-13.87L53.36-13.87 53.32-8.2Q53.32-4.98 54.8-3.66 56.29-2.34 58.64-2.34L58.64-2.34Q60-2.34 61.49-3.08 62.98-3.81 64.06-5.57L64.06-5.57 64.06-11.43Q64.06-12.5 64.03-13.6 64.01-14.7 63.96-15.67 63.91-16.65 63.81-17.33L63.81-17.33 60.25-18.02 60.25-19.48 66.55-21.14 67.13-20.51Q67.08-19.04 67.06-17.99 67.04-16.94 67.04-15.97 67.04-14.99 67.04-13.72L67.04-13.72 67.04-10.35Q67.04-7.23 67.18-5.54 67.33-3.86 67.38-3.13ZM87.44-3.91L88.27-2.73Q87.3-1.22 85.78-0.44 84.27 0.34 82.66 0.34L82.66 0.34Q79.83 0.34 78-1.42 76.16-3.17 76.16-6.64L76.16-6.64 76.26-18.55 72.84-18.55 72.84-19.43 78.61-24.95 79.34-24.95 79.24-19.68 79.19-7.52Q79.19-4.88 80.31-3.54 81.44-2.2 83.54-2.2L83.54-2.2Q84.71-2.2 85.71-2.69 86.71-3.17 87.44-3.91L87.44-3.91ZM86.76-18.55L77.82-18.55 77.82-20.8 86.76-20.8 86.76-18.55ZM103.6-3.91L104.43-2.73Q103.46-1.22 101.94-0.44 100.43 0.34 98.82 0.34L98.82 0.34Q95.99 0.34 94.16-1.42 92.32-3.17 92.32-6.64L92.32-6.64 92.42-18.55 89-18.55 89-19.43 94.77-24.95 95.5-24.95 95.4-19.68 95.35-7.52Q95.35-4.88 96.47-3.54 97.6-2.2 99.7-2.2L99.7-2.2Q100.87-2.2 101.87-2.69 102.87-3.17 103.6-3.91L103.6-3.91ZM102.92-18.55L93.98-18.55 93.98-20.8 102.92-20.8 102.92-18.55ZM115.81 0.39L115.81 0.39Q113.12 0.39 110.88-0.83 108.63-2.05 107.31-4.39 105.99-6.74 105.99-10.01L105.99-10.01Q105.99-13.53 107.36-16.04 108.73-18.55 110.97-19.92 113.22-21.29 115.76-21.24L115.76-21.24Q119.42-21.19 121.52-18.8 123.62-16.41 123.62-11.72L123.62-11.72 123.62-10.94 108.43-10.94 108.43-12.94 120.89-12.94 120.4-12.45 120.4-13.33Q120.4-16.26 119.08-17.85 117.76-19.43 115.37-19.43L115.37-19.43Q113.95-19.43 112.61-18.58 111.27-17.72 110.41-16.02 109.56-14.31 109.56-11.72L109.56-11.72 109.56-11.23Q109.56-7.08 111.58-4.79 113.61-2.49 116.74-2.49L116.74-2.49Q118.54-2.49 119.88-3.17 121.23-3.86 122.5-5.42L122.5-5.42 123.67-4.39Q122.3-1.95 120.3-0.78 118.3 0.39 115.81 0.39ZM137.88 0L127.33 0 127.23-1.61 130.26-2.29Q130.31-2.59 130.33-3.2 130.36-3.81 130.38-4.91 130.4-6.01 130.4-7.62L130.4-7.62 130.4-11.47Q130.4-13.18 130.31-14.87 130.21-16.55 130.06-17.33L130.06-17.33 126.94-18.02 126.94-19.48 132.9-21.14 133.48-20.51 133.24-16.36 133.38-16.31Q134.9-19.19 136.41-20.19 137.92-21.19 139.19-21.19L139.19-21.19Q140.27-21.19 140.98-20.65 141.68-20.12 141.68-19.14L141.68-19.14Q141.68-18.12 140.95-17.58 140.22-17.04 139.05-17.04L139.05-17.04Q138.22-17.04 137.46-17.43 136.7-17.82 136.12-18.41L136.12-18.41 136.8-18.07Q135.87-17.43 134.99-16.31 134.12-15.19 133.38-13.53L133.38-13.53 133.43-8.79Q133.48-7.71 133.53-6.45 133.58-5.18 133.63-4.05 133.68-2.93 133.73-2.29L133.73-2.29 137.97-1.71 137.88 0ZM153.55 0.44L153.55 0.44Q151.4 0.44 149.2-0.07 147-0.59 145.64-1.37L145.64-1.37 145.39-7.42 147.2-7.62 148.47-3.47Q149.74-2.69 151.18-2.25 152.62-1.81 154.33-1.81L154.33-1.81Q156.77-1.81 158.33-3.03 159.89-4.25 159.89-6.4L159.89-6.4Q159.89-8.15 158.84-9.3 157.8-10.45 156.16-11.33 154.52-12.21 152.69-13.04 150.86-13.87 149.23-14.94 147.59-16.02 146.54-17.53 145.49-19.04 145.49-21.34L145.49-21.34Q145.49-23.63 146.78-25.39 148.08-27.15 150.32-28.15 152.57-29.15 155.45-29.15L155.45-29.15Q156.77-29.15 157.92-29.03 159.06-28.91 160.07-28.66 161.07-28.42 161.85-28.03L161.85-28.03 162.19-22.27 160.38-22.07 159.06-25.98Q157.55-27 154.91-27L154.91-27Q152.33-27 150.76-25.73 149.2-24.46 149.2-22.46L149.2-22.46Q149.2-20.65 150.25-19.41 151.3-18.16 152.94-17.26 154.57-16.36 156.4-15.53 158.23-14.7 159.87-13.65 161.51-12.6 162.56-11.13 163.61-9.67 163.61-7.47L163.61-7.47Q163.61-5.22 162.31-3.44 161.02-1.66 158.75-0.61 156.48 0.44 153.55 0.44ZM177.57 10.74L167.27 10.74 167.17 9.13 170.19 8.45Q170.19 8.2 170.22 7.67 170.24 7.13 170.27 6.2 170.29 5.27 170.32 3.98 170.34 2.69 170.34 0.93L170.34 0.93 170.44-11.77Q170.44-13.28 170.34-14.92 170.24-16.55 170.1-17.33L170.1-17.33 166.97-18.02 166.97-19.48 172.93-21.14 173.61-20.41 173.37-17.82 173.52-17.77Q174.98-19.53 176.57-20.39 178.15-21.24 180.06-21.24L180.06-21.24Q182.84-21.24 184.94-19.87 187.04-18.51 188.21-16.16 189.38-13.82 189.38-10.84L189.38-10.84Q189.38-7.62 187.92-5.08 186.45-2.54 183.99-1.1 181.52 0.34 178.5 0.34L178.5 0.34Q177.23 0.34 175.88 0.1 174.54-0.15 173.47-0.59L173.47-0.59 173.47 3.27Q173.47 5.22 173.54 6.47 173.61 7.71 173.66 8.45L173.66 8.45 177.67 8.98 177.57 10.74ZM178.69-1.76L178.69-1.76Q180.79-1.76 182.35-2.76 183.92-3.76 184.82-5.64 185.72-7.52 185.77-10.11L185.77-10.11Q185.82-12.4 184.99-14.28 184.16-16.16 182.65-17.33 181.13-18.51 179.13-18.51L179.13-18.51Q177.47-18.51 176.05-17.72 174.64-16.94 173.47-15.38L173.47-15.38 173.47-3.37Q174.49-2.64 175.88-2.2 177.27-1.76 178.69-1.76ZM202.47 0L193.19 0 193.09-1.61 196.12-2.29Q196.22-2.88 196.24-3.93 196.27-4.98 196.29-6.84 196.32-8.69 196.32-11.67L196.32-11.67 196.32-17.72Q196.32-19.38 196.29-21.39 196.27-23.39 196.24-25.24 196.22-27.1 196.19-28.42 196.17-29.74 196.17-30.08L196.17-30.08 192.56-30.57 192.46-31.93 198.71-33.84 199.49-33.2Q199.44-31.69 199.42-30.15 199.39-28.61 199.37-26.83 199.34-25.05 199.32-22.88 199.29-20.7 199.29-17.87L199.29-17.87 199.44-17.82Q201.2-19.68 202.81-20.46 204.42-21.24 206.33-21.24L206.33-21.24Q208.03-21.24 209.6-20.36 211.16-19.48 212.18-17.63 213.21-15.77 213.21-12.84L213.21-12.84 213.21-7.47Q213.21-5.66 213.31-4.27 213.41-2.88 213.5-2.29L213.5-2.29 216.53-1.61 216.48 0 207.3 0 207.2-1.61 210.04-2.29Q210.08-2.69 210.11-3.22 210.13-3.76 210.16-4.66 210.18-5.57 210.18-7.03L210.18-7.03 210.18-12.6Q210.18-14.79 209.45-16.14 208.72-17.48 207.55-18.09 206.37-18.7 205.06-18.7L205.06-18.7Q203.35-18.7 201.88-17.85 200.42-16.99 199.34-15.48L199.34-15.48 199.34-8.06Q199.34-5.71 199.42-4.2 199.49-2.69 199.54-2.29L199.54-2.29 202.57-1.61 202.47 0ZM229.81 0.39L229.81 0.39Q227.12 0.39 224.88-0.83 222.63-2.05 221.31-4.39 219.99-6.74 219.99-10.01L219.99-10.01Q219.99-13.53 221.36-16.04 222.73-18.55 224.98-19.92 227.22-21.29 229.76-21.24L229.76-21.24Q233.42-21.19 235.52-18.8 237.62-16.41 237.62-11.72L237.62-11.72 237.62-10.94 222.44-10.94 222.44-12.94 234.89-12.94 234.4-12.45 234.4-13.33Q234.4-16.26 233.08-17.85 231.76-19.43 229.37-19.43L229.37-19.43Q227.95-19.43 226.61-18.58 225.27-17.72 224.41-16.02 223.56-14.31 223.56-11.72L223.56-11.72 223.56-11.23Q223.56-7.08 225.59-4.79 227.61-2.49 230.74-2.49L230.74-2.49Q232.54-2.49 233.89-3.17 235.23-3.86 236.5-5.42L236.5-5.42 237.67-4.39Q236.3-1.95 234.3-0.78 232.3 0.39 229.81 0.39ZM251.88 0L241.33 0 241.23-1.61 244.26-2.29Q244.31-2.59 244.33-3.2 244.36-3.81 244.38-4.91 244.41-6.01 244.41-7.62L244.41-7.62 244.41-11.47Q244.41-13.18 244.31-14.87 244.21-16.55 244.06-17.33L244.06-17.33 240.94-18.02 240.94-19.48 246.9-21.14 247.48-20.51 247.24-16.36 247.38-16.31Q248.9-19.19 250.41-20.19 251.93-21.19 253.2-21.19L253.2-21.19Q254.27-21.19 254.98-20.65 255.69-20.12 255.69-19.14L255.69-19.14Q255.69-18.12 254.95-17.58 254.22-17.04 253.05-17.04L253.05-17.04Q252.22-17.04 251.46-17.43 250.7-17.82 250.12-18.41L250.12-18.41 250.8-18.07Q249.87-17.43 249-16.31 248.12-15.19 247.38-13.53L247.38-13.53 247.43-8.79Q247.48-7.71 247.53-6.45 247.58-5.18 247.63-4.05 247.68-2.93 247.73-2.29L247.73-2.29 251.97-1.71 251.88 0ZM267.6 0.39L267.6 0.39Q264.91 0.39 262.67-0.83 260.42-2.05 259.1-4.39 257.78-6.74 257.78-10.01L257.78-10.01Q257.78-13.53 259.15-16.04 260.52-18.55 262.76-19.92 265.01-21.29 267.55-21.24L267.55-21.24Q271.21-21.19 273.31-18.8 275.41-16.41 275.41-11.72L275.41-11.72 275.41-10.94 260.22-10.94 260.22-12.94 272.68-12.94 272.19-12.45 272.19-13.33Q272.19-16.26 270.87-17.85 269.55-19.43 267.16-19.43L267.16-19.43Q265.74-19.43 264.4-18.58 263.06-17.72 262.2-16.02 261.35-14.31 261.35-11.72L261.35-11.72 261.35-11.23Q261.35-7.08 263.37-4.79 265.4-2.49 268.52-2.49L268.52-2.49Q270.33-2.49 271.67-3.17 273.02-3.86 274.29-5.42L274.29-5.42 275.46-4.39Q274.09-1.95 272.09-0.78 270.09 0.39 267.6 0.39Z" opacity="1" transform="matrix(1,0,0,1,0,0)" fill="white" class="wordmark-text-0" id="SvgjsPath5974"></path></svg></g></svg></g></svg></g></svg></g><g transform="matrix(1,0,0,1,0,4.628982202865323)"><svg viewBox="0 0 55.410688889398294 55.41068888939829" height="55.41068888939829" width="55.410688889398294"><g><svg></svg></g><g id="SvgjsG5973"><svg viewBox="0 0 55.410688889398294 55.41068888939829" height="55.41068888939829" width="55.410688889398294"><g><path transform="scale(0.55411,0.55411)" d="M30 100c-16.569 0-30-13.431-30-30v-40c0-16.569 13.431-30 30-30h40c16.569 0 30 13.431 30 30v40c0 16.569-13.431 30-30 30z" fill="black" fill-rule="nonzero" stroke="none" stroke-width="1" stroke-linecap="butt" stroke-linejoin="miter" stroke-miterlimit="10" stroke-dasharray="" stroke-dashoffset="0" font-family="none" font-weight="none" font-size="none" text-anchor="none" style="mix-blend-mode: normal"></path></g><g transform="matrix(1,0,0,1,11.082137777879662,11.08232247401942)"><svg viewBox="0 0 33.24641333363897 33.246043941359446" height="33.246043941359446" width="33.24641333363897"><g><svg xmlns="http://www.w3.org/2000/svg" xmlns:xlink="http://www.w3.org/1999/xlink" version="1.1" x="0" y="0" viewBox="5 5 90.003 90.002" enable-background="new 0 0 100 100" xml:space="preserve" height="33.246043941359446" width="33.24641333363897" class="icon-dxe-0" data-fill-palette-color="quaternary" id="SvgjsSvg5972"><g fill="black"><path d="M5.04 51.306C5.051 51.693 5.056 52.082 5.077 52.467 5.102 52.933 5.143 53.399 5.183 53.865A43 43 0 0 0 5.465 56.376C5.536 56.874 5.619 57.368 5.706 57.861 5.766 58.202 5.82 58.543 5.888 58.882 6.056 59.721 6.246 60.552 6.46 61.374 6.499 61.523 6.546 61.671 6.587 61.82 6.788 62.562 7.009 63.295 7.247 64.021 7.309 64.211 7.374 64.399 7.439 64.589 7.704 65.362 7.988 66.126 8.293 66.88L8.323 66.957 8.389 67.124A45 45 0 0 0 11.004 72.439L11.035 72.497 11.119 72.632C11.413 73.135 11.716 73.632 12.029 74.123L12.06 74.174 12.061 74.175C12.226 74.434 12.389 74.694 12.559 74.95 12.91 75.476 13.275 75.991 13.647 76.501 13.875 76.814 14.103 77.126 14.339 77.433 14.501 77.644 14.671 77.847 14.836 78.054 15.048 78.319 15.258 78.584 15.475 78.844 15.713 79.129 15.952 79.414 16.198 79.694 16.345 79.862 16.494 80.027 16.643 80.193 16.817 80.385 17 80.569 17.177 80.759 17.507 81.111 17.833 81.464 18.175 81.806L18.194 81.825C18.535 82.166 18.887 82.491 19.237 82.819 19.427 82.998 19.613 83.182 19.807 83.357 19.973 83.507 20.139 83.656 20.307 83.804 20.586 84.049 20.869 84.287 21.153 84.524 21.413 84.742 21.679 84.952 21.944 85.164 22.153 85.33 22.356 85.5 22.568 85.663 22.875 85.899 23.186 86.127 23.498 86.354 24.008 86.726 24.523 87.092 25.049 87.443 25.322 87.625 25.599 87.798 25.876 87.973 26.366 88.285 26.862 88.588 27.365 88.882L27.502 88.967 27.562 88.999A45 45 0 0 0 32.874 91.612L33.043 91.679 33.117 91.708C33.87 92.013 34.634 92.297 35.407 92.562 35.597 92.627 35.787 92.693 35.978 92.755 36.703 92.993 37.435 93.213 38.175 93.414 38.325 93.455 38.474 93.502 38.624 93.542 39.446 93.756 40.277 93.946 41.116 94.114 41.455 94.182 41.795 94.236 42.135 94.296 42.629 94.383 43.124 94.466 43.624 94.537A43 43 0 0 0 46.138 94.818C46.603 94.858 47.067 94.899 47.532 94.924 47.921 94.945 48.314 94.95 48.705 94.962 49.123 94.974 49.541 95.002 49.959 95.002L50 94.999 50.041 95C50.458 95 50.876 94.972 51.294 94.96 51.443 94.956 51.592 94.954 51.74 94.949L51.877 94.963 52.106 94.94C52.226 94.934 52.347 94.93 52.467 94.923 52.931 94.898 53.395 94.857 53.859 94.817A43 43 0 0 0 56.373 94.535C56.874 94.464 57.37 94.38 57.865 94.293 58.204 94.233 58.543 94.18 58.881 94.112 59.721 93.944 60.553 93.753 61.375 93.539 61.523 93.5 61.671 93.453 61.819 93.413A45 45 0 0 0 66.884 91.705L66.957 91.677 67.124 91.611A45 45 0 0 0 72.439 88.996L72.498 88.964 72.634 88.879C73.137 88.585 73.634 88.282 74.125 87.969 74.401 87.794 74.678 87.621 74.95 87.44A44 44 0 0 0 76.503 86.35C76.815 86.123 77.126 85.895 77.432 85.66 77.644 85.498 77.847 85.327 78.055 85.162 78.32 84.95 78.586 84.74 78.846 84.522 79.13 84.284 79.414 84.047 79.693 83.802 79.861 83.655 80.027 83.505 80.193 83.356 80.386 83.181 80.571 82.998 80.761 82.819 81.112 82.49 81.464 82.165 81.805 81.824L81.825 81.804C82.166 81.463 82.492 81.11 82.82 80.76 82.998 80.57 83.182 80.385 83.357 80.192A35 35 0 0 0 84.524 78.845C84.742 78.585 84.952 78.319 85.164 78.054 85.33 77.846 85.5 77.643 85.662 77.431 85.897 77.126 86.123 76.816 86.349 76.506 86.723 75.994 87.089 75.477 87.442 74.949 87.623 74.676 87.796 74.4 87.971 74.123 88.283 73.633 88.586 73.136 88.88 72.633L88.965 72.496 88.997 72.436A50 50 0 0 0 89.744 71.091C89.88 70.928 89.981 70.736 90.035 70.523A45 45 0 0 0 91.612 67.121L91.678 66.955 91.707 66.882A45 45 0 0 0 92.754 64.023C92.993 63.295 93.214 62.559 93.416 61.815 93.456 61.668 93.502 61.522 93.541 61.375 93.755 60.552 93.946 59.72 94.114 58.88 94.182 58.543 94.235 58.204 94.295 57.866A43 43 0 0 0 94.7 55.09C94.746 54.681 94.784 54.27 94.819 53.858 94.859 53.394 94.9 52.931 94.925 52.467 94.946 52.078 94.951 51.684 94.963 51.292 94.975 50.875 95.003 50.457 95.003 50.04L94.999 50 95 49.959C95 49.542 94.972 49.123 94.96 48.705 94.949 48.314 94.944 47.921 94.923 47.533 94.898 47.068 94.857 46.604 94.817 46.139A45 45 0 0 0 94.699 44.911 47 47 0 0 0 94.536 43.625 45 45 0 0 0 94.295 42.139C94.235 41.798 94.181 41.457 94.113 41.117A45 45 0 0 0 93.541 38.627C93.501 38.475 93.454 38.325 93.412 38.174A45 45 0 0 0 91.708 33.123L91.678 33.045 91.611 32.876A45 45 0 0 0 89.297 28.091C89.199 27.914 89.098 27.738 88.998 27.563L88.967 27.505 88.882 27.368A46 46 0 0 0 88.139 26.137 1.5 1.5 0 0 0 87.8 25.593 46 46 0 0 0 86.36 23.507 45 45 0 0 0 85.664 22.57C85.501 22.358 85.331 22.155 85.165 21.946 84.954 21.682 84.744 21.417 84.527 21.158A35 35 0 0 0 83.359 19.81C83.185 19.617 83.002 19.433 82.824 19.243 82.495 18.892 82.168 18.539 81.826 18.197L81.807 18.178C81.465 17.835 81.111 17.509 80.759 17.179 80.57 17.002 80.387 16.82 80.195 16.646 80.029 16.496 79.864 16.347 79.696 16.2 79.416 15.954 79.131 15.715 78.845 15.476 78.586 15.259 78.321 15.05 78.057 14.839 77.849 14.674 77.646 14.504 77.435 14.341 77.123 14.101 76.806 13.869 76.488 13.638A45 45 0 0 0 74.953 12.561C74.678 12.378 74.4 12.204 74.122 12.028 73.632 11.716 73.136 11.413 72.634 11.12L72.499 11.036 72.442 11.006C72.265 10.905 72.089 10.804 71.911 10.705A45 45 0 0 0 67.129 8.392L66.957 8.324 66.876 8.292A45 45 0 0 0 61.842 6.594C61.684 6.551 61.528 6.501 61.37 6.46A45 45 0 0 0 58.89 5.89C58.542 5.82 58.193 5.765 57.845 5.703 57.361 5.618 56.875 5.536 56.386 5.466A43 43 0 0 0 53.879 5.184 45 45 0 0 0 52.463 5.076C52.092 5.056 51.718 5.051 51.344 5.04 50.908 5.029 50.474 5 50.041 5L50 5.001 49.959 5C49.525 5 49.091 5.029 48.657 5.041 48.284 5.052 47.91 5.057 47.539 5.077 47.066 5.103 46.594 5.144 46.121 5.185 45.72 5.219 45.32 5.256 44.923 5.3 44.486 5.349 44.05 5.404 43.613 5.466 43.125 5.535 42.642 5.617 42.159 5.702 41.809 5.764 41.459 5.819 41.109 5.889 40.275 6.056 39.449 6.245 38.632 6.458 38.471 6.5 38.311 6.551 38.149 6.595A45 45 0 0 0 33.126 8.29L33.044 8.322 32.868 8.392A45 45 0 0 0 27.559 11.004L27.502 11.035 27.367 11.119C26.865 11.412 26.369 11.715 25.88 12.026 25.602 12.203 25.322 12.377 25.047 12.56 24.524 12.909 24.012 13.272 23.505 13.642 23.19 13.871 22.876 14.101 22.566 14.339 22.354 14.501 22.152 14.671 21.944 14.837 21.68 15.048 21.414 15.258 21.155 15.475A35 35 0 0 0 19.807 16.643C19.614 16.818 19.429 17.001 19.239 17.179 18.888 17.508 18.536 17.834 18.194 18.175L18.175 18.194C17.833 18.536 17.506 18.889 17.177 19.241 17 19.43 16.817 19.615 16.643 19.807A45 45 0 0 0 15.474 21.157C15.257 21.416 15.048 21.681 14.837 21.945 14.672 22.153 14.502 22.356 14.34 22.567 14.101 22.878 13.87 23.193 13.64 23.51A45 45 0 0 0 12.56 25.049C12.377 25.324 12.203 25.603 12.027 25.881 11.715 26.371 11.413 26.866 11.119 27.369L11.035 27.504 11.005 27.56A46 46 0 0 0 8.391 32.873L8.323 33.045 8.292 33.125A43 43 0 0 0 7.443 35.403 45 45 0 0 0 6.593 38.164C6.55 38.319 6.501 38.474 6.46 38.63A45 45 0 0 0 5.889 41.115C5.82 41.458 5.766 41.802 5.705 42.146A41 41 0 0 0 5.185 46.134C5.145 46.601 5.104 47.067 5.078 47.535 5.057 47.919 5.052 48.307 5.041 48.693 5.029 49.115 5 49.538 5 49.959L5.001 50 5 50.041C5 50.462 5.029 50.884 5.04 51.306M7.911 50C7.911 49.718 7.927 49.441 7.932 49.16 7.943 48.644 7.952 48.129 7.982 47.615 7.999 47.311 8.028 47.011 8.051 46.708A44 44 0 0 1 8.303 44.31C8.41 43.533 8.531 42.758 8.68 41.989L8.692 41.92A42 42 0 0 1 10.06 36.717L10.075 36.672C10.336 35.888 10.625 35.114 10.932 34.346L11.008 34.141V34.14C11.163 33.759 11.342 33.389 11.508 33.012 11.727 32.516 11.937 32.018 12.178 31.527L12.286 31.321H35.862L31.37 39.046 31.351 39.078 31.309 39.145C31.244 39.248 31.199 39.358 31.163 39.469L25.496 49.262 13.235 70.456A43 43 0 0 1 12.419 68.928C12.342 68.774 12.255 68.625 12.18 68.47 11.938 67.977 11.727 67.476 11.507 66.977 11.343 66.603 11.164 66.235 11.011 65.858L10.928 65.637A43 43 0 0 1 10.075 63.323L10.062 63.283A43 43 0 0 1 8.693 58.077L8.682 58.014A42 42 0 0 1 8.051 53.289C8.028 52.988 7.999 52.688 7.982 52.385 7.952 51.87 7.943 51.354 7.932 50.838 7.926 50.558 7.911 50.281 7.911 50M15.334 26.148A42 42 0 0 1 16.541 24.477C16.708 24.258 16.88 24.043 17.051 23.828L17.179 23.668C17.469 23.306 17.765 22.952 18.065 22.601 18.249 22.387 18.431 22.172 18.618 21.962 18.803 21.755 18.994 21.551 19.184 21.347 19.495 21.011 19.808 20.677 20.129 20.353L20.239 20.237 20.374 20.108C20.691 19.794 21.018 19.489 21.346 19.184 21.551 18.994 21.755 18.802 21.963 18.616 22.173 18.428 22.388 18.246 22.602 18.062 22.952 17.762 23.306 17.466 23.668 17.177L23.825 17.05C24.041 16.878 24.257 16.705 24.477 16.537A43 43 0 0 1 26.147 15.331C26.293 15.231 26.435 15.124 26.582 15.026 27.286 14.555 28.012 14.106 28.752 13.673L28.875 13.598 29.091 13.474A43 43 0 0 1 31.08 12.412C31.231 12.336 31.377 12.251 31.529 12.177 32.023 11.935 32.524 11.724 33.023 11.503 33.396 11.339 33.763 11.161 34.14 11.008L34.15 11.004 34.353 10.928A42 42 0 0 1 36.67 10.074L36.722 10.056A42 42 0 0 1 41.917 8.69L42.002 8.675A43 43 0 0 1 46.698 8.048C46.9 8.032 47.101 8.015 47.303 8.002L59.106 28.417H13.883A42 42 0 0 1 15.029 26.579C15.127 26.436 15.233 26.294 15.334 26.148M53.301 8.052A43 43 0 0 1 55.694 8.305C56.466 8.411 57.235 8.531 57.999 8.68L58.082 8.695C59.841 9.04 61.577 9.496 63.278 10.061L63.329 10.078C64.109 10.338 64.879 10.626 65.643 10.931L65.852 11.009 65.859 11.012C66.236 11.165 66.603 11.343 66.975 11.507 67.474 11.728 67.976 11.939 68.47 12.181 68.623 12.255 68.77 12.341 68.922 12.417A43 43 0 0 1 70.907 13.476L71.124 13.601 71.249 13.677C71.989 14.11 72.714 14.559 73.417 15.029 73.564 15.127 73.706 15.234 73.852 15.334 74.421 15.725 74.978 16.126 75.522 16.54 75.741 16.708 75.957 16.88 76.172 17.051L76.331 17.179C76.693 17.469 77.048 17.765 77.398 18.065 77.612 18.248 77.827 18.43 78.037 18.618 78.245 18.804 78.448 18.995 78.653 19.185 78.988 19.496 79.323 19.809 79.646 20.129L79.761 20.239 79.867 20.35C80.189 20.675 80.502 21.01 80.815 21.347 81.005 21.552 81.197 21.756 81.383 21.964 81.57 22.173 81.751 22.387 81.934 22.6 82.234 22.951 82.531 23.306 82.821 23.668L82.953 23.832C83.123 24.046 83.293 24.259 83.459 24.476 83.872 25.019 84.273 25.576 84.663 26.144 84.765 26.292 84.873 26.435 84.972 26.584L85.082 26.761 73.284 47.15 62.879 29.146 50.611 7.926 50.871 7.933C51.374 7.944 51.878 7.953 52.379 7.982 52.689 7.999 52.994 8.028 53.301 8.052M87.82 31.531C88.06 32.02 88.269 32.517 88.488 33.011 88.654 33.389 88.835 33.761 88.99 34.143L89.064 34.342C89.372 35.113 89.663 35.891 89.925 36.678L89.938 36.716A42 42 0 0 1 91.307 41.924L91.318 41.984A43 43 0 0 1 91.95 46.715C91.973 47.014 92.002 47.312 92.018 47.614 92.048 48.134 92.058 48.656 92.069 49.178 92.074 49.453 92.09 49.725 92.09 50.001S92.074 50.548 92.069 50.822C92.058 51.345 92.048 51.867 92.018 52.388 92.001 52.689 91.973 52.986 91.95 53.284A41 41 0 0 1 91.697 55.684 42 42 0 0 1 91.317 58.021L91.307 58.075A42 42 0 0 1 89.937 63.287L89.927 63.318C89.666 64.101 89.377 64.875 89.071 65.642L88.99 65.858C88.836 66.237 88.657 66.606 88.492 66.981 88.272 67.478 88.061 67.978 87.82 68.47L87.691 68.718H64.15L74.54 50.778 86.795 29.6C87.065 30.086 87.329 30.573 87.577 31.065 87.655 31.221 87.743 31.373 87.82 31.531M84.66 73.861A43 43 0 0 1 83.459 75.524C83.296 75.737 83.129 75.947 82.962 76.157L82.816 76.338C82.527 76.699 82.232 77.052 81.933 77.401 81.752 77.612 81.572 77.824 81.387 78.032 81.199 78.242 81.006 78.449 80.813 78.656 80.476 79.019 80.139 79.382 79.791 79.731L79.763 79.761 79.76 79.764C79.401 80.123 79.027 80.469 78.653 80.816 78.448 81.006 78.244 81.198 78.036 81.384S77.616 81.75 77.405 81.931C77.053 82.232 76.697 82.529 76.334 82.82L76.165 82.956C75.953 83.124 75.742 83.293 75.527 83.457 74.985 83.87 74.429 84.27 73.862 84.659 73.713 84.762 73.567 84.871 73.417 84.971 72.719 85.437 72 85.882 71.266 86.312L71.118 86.402 70.909 86.522C70.256 86.896 69.596 87.242 68.933 87.577 68.778 87.655 68.627 87.742 68.472 87.818 67.979 88.059 67.479 88.27 66.981 88.491 66.607 88.656 66.238 88.834 65.86 88.988L65.644 89.069C64.878 89.375 64.105 89.664 63.323 89.925L63.287 89.937A42 42 0 0 1 58.079 91.306L58.019 91.317A43 43 0 0 1 53.289 91.949C53.096 91.964 52.904 91.981 52.711 91.993L40.87 71.621H86.092A43 43 0 0 1 84.973 73.416C84.872 73.566 84.763 73.712 84.66 73.861M46.715 91.95A41 41 0 0 1 44.316 91.697 43 43 0 0 1 41.985 91.318L41.924 91.307A42 42 0 0 1 36.716 89.938L36.681 89.926A43 43 0 0 1 34.35 89.067L34.145 88.99C33.764 88.835 33.392 88.655 33.015 88.489 32.52 88.27 32.022 88.06 31.532 87.82 31.375 87.743 31.223 87.655 31.066 87.576A43 43 0 0 1 29.093 86.523L28.884 86.403 28.739 86.315A42 42 0 0 1 26.586 84.973C26.435 84.872 26.29 84.763 26.14 84.66A41 41 0 0 1 24.476 83.458C24.262 83.295 24.052 83.126 23.841 82.959L23.666 82.818C23.304 82.528 22.949 82.232 22.599 81.932 22.388 81.751 22.176 81.571 21.969 81.386 21.759 81.198 21.553 81.005 21.346 80.813A40 40 0 0 1 20.287 79.806L20.24 79.761 20.214 79.733A41 41 0 0 1 19.185 78.65C18.995 78.445 18.803 78.241 18.618 78.034S18.253 77.614 18.071 77.403C17.769 77.051 17.471 76.694 17.18 76.33L17.046 76.164C16.878 75.952 16.709 75.741 16.544 75.526A42 42 0 0 1 15.337 73.854C15.236 73.707 15.129 73.565 15.03 73.417L14.951 73.29 26.75 52.898 37.089 70.892 37.092 70.898 49.396 92.074 49.176 92.068C48.654 92.057 48.132 92.047 47.611 92.017 47.312 92.001 47.014 91.973 46.715 91.95M39.234 31.324H60.785L71.607 50.049 60.795 68.717H39.188L28.43 49.994z" fill="black"></path></g></svg></g></svg></g></svg></g></svg></g></svg></g><defs><mask></mask></defs></svg><rect width="395.52" height="54.86462478861441" fill="black" stroke="none" visibility="hidden"></rect></g></mask><linearGradient x1="0" x2="1" y1="0.548" y2="0.55" id="24efe7d8-aa12-43d5-ba94-c289a845ba7d"><stop stop-color="#ff6cab" offset="0"></stop><stop stop-color="#7366ff" offset="1"></stop></linearGradient><rect width="395.52" height="54.86462478861441" fill="url(#24efe7d8-aa12-43d5-ba94-c289a845ba7d)" mask="url(#cfc0a583-fa23-4eb7-8420-326763f255e5)" data-fill-palette-color="primary"></rect><mask id="86b46640-e131-4962-9688-0ae068f352de"><g id="SvgjsG6000"><svg viewBox="0 0 395.52 54.86462478861441" height="54.86462478861441" width="395.52"><g><svg viewBox="0 0 466.19740588469915 64.66865329512893" height="54.86462478861441" width="395.52"><g transform="matrix(1,0,0,1,70.67740588469916,0)"><svg viewBox="0 0 395.52 64.66865329512893" height="64.66865329512893" width="395.52"><g id="SvgjsG5999"><svg viewBox="0 0 395.52 64.66865329512893" height="64.66865329512893" width="395.52" id="SvgjsSvg5998"><g><svg viewBox="0 0 395.52 64.66865329512893" height="64.66865329512893" width="395.52"><g transform="matrix(1,0,0,1,0,0)"><svg width="395.52" viewBox="2.83 -33.84 272.63 44.580000000000005" height="64.66865329512893" data-palette-color="url(#24efe7d8-aa12-43d5-ba94-c289a845ba7d)"></svg></g></svg></g></svg></g></svg></g><g transform="matrix(1,0,0,1,0,4.628982202865323)"><svg viewBox="0 0 55.410688889398294 55.41068888939829" height="55.41068888939829" width="55.410688889398294"><g><svg></svg></g><g id="SvgjsG5997"><svg viewBox="0 0 55.410688889398294 55.41068888939829" height="55.41068888939829" width="55.410688889398294"><g><path transform="scale(0.55411,0.55411)" d="M30 100c-16.569 0-30-13.431-30-30v-40c0-16.569 13.431-30 30-30h40c16.569 0 30 13.431 30 30v40c0 16.569-13.431 30-30 30z" fill="white" fill-rule="nonzero" stroke="none" stroke-width="1" stroke-linecap="butt" stroke-linejoin="miter" stroke-miterlimit="10" stroke-dasharray="" stroke-dashoffset="0" font-family="none" font-weight="none" font-size="none" text-anchor="none" style="mix-blend-mode: normal"></path></g><g transform="matrix(1,0,0,1,11.082137777879662,11.08232247401942)"><svg viewBox="0 0 33.24641333363897 33.246043941359446" height="33.246043941359446" width="33.24641333363897"><g><svg xmlns="http://www.w3.org/2000/svg" xmlns:xlink="http://www.w3.org/1999/xlink" version="1.1" x="0" y="0" viewBox="5 5 90.003 90.002" enable-background="new 0 0 100 100" xml:space="preserve" height="33.246043941359446" width="33.24641333363897" class="icon-dxe-0" data-fill-palette-color="quaternary" id="SvgjsSvg5996"><g fill="black"><path d="M5.04 51.306C5.051 51.693 5.056 52.082 5.077 52.467 5.102 52.933 5.143 53.399 5.183 53.865A43 43 0 0 0 5.465 56.376C5.536 56.874 5.619 57.368 5.706 57.861 5.766 58.202 5.82 58.543 5.888 58.882 6.056 59.721 6.246 60.552 6.46 61.374 6.499 61.523 6.546 61.671 6.587 61.82 6.788 62.562 7.009 63.295 7.247 64.021 7.309 64.211 7.374 64.399 7.439 64.589 7.704 65.362 7.988 66.126 8.293 66.88L8.323 66.957 8.389 67.124A45 45 0 0 0 11.004 72.439L11.035 72.497 11.119 72.632C11.413 73.135 11.716 73.632 12.029 74.123L12.06 74.174 12.061 74.175C12.226 74.434 12.389 74.694 12.559 74.95 12.91 75.476 13.275 75.991 13.647 76.501 13.875 76.814 14.103 77.126 14.339 77.433 14.501 77.644 14.671 77.847 14.836 78.054 15.048 78.319 15.258 78.584 15.475 78.844 15.713 79.129 15.952 79.414 16.198 79.694 16.345 79.862 16.494 80.027 16.643 80.193 16.817 80.385 17 80.569 17.177 80.759 17.507 81.111 17.833 81.464 18.175 81.806L18.194 81.825C18.535 82.166 18.887 82.491 19.237 82.819 19.427 82.998 19.613 83.182 19.807 83.357 19.973 83.507 20.139 83.656 20.307 83.804 20.586 84.049 20.869 84.287 21.153 84.524 21.413 84.742 21.679 84.952 21.944 85.164 22.153 85.33 22.356 85.5 22.568 85.663 22.875 85.899 23.186 86.127 23.498 86.354 24.008 86.726 24.523 87.092 25.049 87.443 25.322 87.625 25.599 87.798 25.876 87.973 26.366 88.285 26.862 88.588 27.365 88.882L27.502 88.967 27.562 88.999A45 45 0 0 0 32.874 91.612L33.043 91.679 33.117 91.708C33.87 92.013 34.634 92.297 35.407 92.562 35.597 92.627 35.787 92.693 35.978 92.755 36.703 92.993 37.435 93.213 38.175 93.414 38.325 93.455 38.474 93.502 38.624 93.542 39.446 93.756 40.277 93.946 41.116 94.114 41.455 94.182 41.795 94.236 42.135 94.296 42.629 94.383 43.124 94.466 43.624 94.537A43 43 0 0 0 46.138 94.818C46.603 94.858 47.067 94.899 47.532 94.924 47.921 94.945 48.314 94.95 48.705 94.962 49.123 94.974 49.541 95.002 49.959 95.002L50 94.999 50.041 95C50.458 95 50.876 94.972 51.294 94.96 51.443 94.956 51.592 94.954 51.74 94.949L51.877 94.963 52.106 94.94C52.226 94.934 52.347 94.93 52.467 94.923 52.931 94.898 53.395 94.857 53.859 94.817A43 43 0 0 0 56.373 94.535C56.874 94.464 57.37 94.38 57.865 94.293 58.204 94.233 58.543 94.18 58.881 94.112 59.721 93.944 60.553 93.753 61.375 93.539 61.523 93.5 61.671 93.453 61.819 93.413A45 45 0 0 0 66.884 91.705L66.957 91.677 67.124 91.611A45 45 0 0 0 72.439 88.996L72.498 88.964 72.634 88.879C73.137 88.585 73.634 88.282 74.125 87.969 74.401 87.794 74.678 87.621 74.95 87.44A44 44 0 0 0 76.503 86.35C76.815 86.123 77.126 85.895 77.432 85.66 77.644 85.498 77.847 85.327 78.055 85.162 78.32 84.95 78.586 84.74 78.846 84.522 79.13 84.284 79.414 84.047 79.693 83.802 79.861 83.655 80.027 83.505 80.193 83.356 80.386 83.181 80.571 82.998 80.761 82.819 81.112 82.49 81.464 82.165 81.805 81.824L81.825 81.804C82.166 81.463 82.492 81.11 82.82 80.76 82.998 80.57 83.182 80.385 83.357 80.192A35 35 0 0 0 84.524 78.845C84.742 78.585 84.952 78.319 85.164 78.054 85.33 77.846 85.5 77.643 85.662 77.431 85.897 77.126 86.123 76.816 86.349 76.506 86.723 75.994 87.089 75.477 87.442 74.949 87.623 74.676 87.796 74.4 87.971 74.123 88.283 73.633 88.586 73.136 88.88 72.633L88.965 72.496 88.997 72.436A50 50 0 0 0 89.744 71.091C89.88 70.928 89.981 70.736 90.035 70.523A45 45 0 0 0 91.612 67.121L91.678 66.955 91.707 66.882A45 45 0 0 0 92.754 64.023C92.993 63.295 93.214 62.559 93.416 61.815 93.456 61.668 93.502 61.522 93.541 61.375 93.755 60.552 93.946 59.72 94.114 58.88 94.182 58.543 94.235 58.204 94.295 57.866A43 43 0 0 0 94.7 55.09C94.746 54.681 94.784 54.27 94.819 53.858 94.859 53.394 94.9 52.931 94.925 52.467 94.946 52.078 94.951 51.684 94.963 51.292 94.975 50.875 95.003 50.457 95.003 50.04L94.999 50 95 49.959C95 49.542 94.972 49.123 94.96 48.705 94.949 48.314 94.944 47.921 94.923 47.533 94.898 47.068 94.857 46.604 94.817 46.139A45 45 0 0 0 94.699 44.911 47 47 0 0 0 94.536 43.625 45 45 0 0 0 94.295 42.139C94.235 41.798 94.181 41.457 94.113 41.117A45 45 0 0 0 93.541 38.627C93.501 38.475 93.454 38.325 93.412 38.174A45 45 0 0 0 91.708 33.123L91.678 33.045 91.611 32.876A45 45 0 0 0 89.297 28.091C89.199 27.914 89.098 27.738 88.998 27.563L88.967 27.505 88.882 27.368A46 46 0 0 0 88.139 26.137 1.5 1.5 0 0 0 87.8 25.593 46 46 0 0 0 86.36 23.507 45 45 0 0 0 85.664 22.57C85.501 22.358 85.331 22.155 85.165 21.946 84.954 21.682 84.744 21.417 84.527 21.158A35 35 0 0 0 83.359 19.81C83.185 19.617 83.002 19.433 82.824 19.243 82.495 18.892 82.168 18.539 81.826 18.197L81.807 18.178C81.465 17.835 81.111 17.509 80.759 17.179 80.57 17.002 80.387 16.82 80.195 16.646 80.029 16.496 79.864 16.347 79.696 16.2 79.416 15.954 79.131 15.715 78.845 15.476 78.586 15.259 78.321 15.05 78.057 14.839 77.849 14.674 77.646 14.504 77.435 14.341 77.123 14.101 76.806 13.869 76.488 13.638A45 45 0 0 0 74.953 12.561C74.678 12.378 74.4 12.204 74.122 12.028 73.632 11.716 73.136 11.413 72.634 11.12L72.499 11.036 72.442 11.006C72.265 10.905 72.089 10.804 71.911 10.705A45 45 0 0 0 67.129 8.392L66.957 8.324 66.876 8.292A45 45 0 0 0 61.842 6.594C61.684 6.551 61.528 6.501 61.37 6.46A45 45 0 0 0 58.89 5.89C58.542 5.82 58.193 5.765 57.845 5.703 57.361 5.618 56.875 5.536 56.386 5.466A43 43 0 0 0 53.879 5.184 45 45 0 0 0 52.463 5.076C52.092 5.056 51.718 5.051 51.344 5.04 50.908 5.029 50.474 5 50.041 5L50 5.001 49.959 5C49.525 5 49.091 5.029 48.657 5.041 48.284 5.052 47.91 5.057 47.539 5.077 47.066 5.103 46.594 5.144 46.121 5.185 45.72 5.219 45.32 5.256 44.923 5.3 44.486 5.349 44.05 5.404 43.613 5.466 43.125 5.535 42.642 5.617 42.159 5.702 41.809 5.764 41.459 5.819 41.109 5.889 40.275 6.056 39.449 6.245 38.632 6.458 38.471 6.5 38.311 6.551 38.149 6.595A45 45 0 0 0 33.126 8.29L33.044 8.322 32.868 8.392A45 45 0 0 0 27.559 11.004L27.502 11.035 27.367 11.119C26.865 11.412 26.369 11.715 25.88 12.026 25.602 12.203 25.322 12.377 25.047 12.56 24.524 12.909 24.012 13.272 23.505 13.642 23.19 13.871 22.876 14.101 22.566 14.339 22.354 14.501 22.152 14.671 21.944 14.837 21.68 15.048 21.414 15.258 21.155 15.475A35 35 0 0 0 19.807 16.643C19.614 16.818 19.429 17.001 19.239 17.179 18.888 17.508 18.536 17.834 18.194 18.175L18.175 18.194C17.833 18.536 17.506 18.889 17.177 19.241 17 19.43 16.817 19.615 16.643 19.807A45 45 0 0 0 15.474 21.157C15.257 21.416 15.048 21.681 14.837 21.945 14.672 22.153 14.502 22.356 14.34 22.567 14.101 22.878 13.87 23.193 13.64 23.51A45 45 0 0 0 12.56 25.049C12.377 25.324 12.203 25.603 12.027 25.881 11.715 26.371 11.413 26.866 11.119 27.369L11.035 27.504 11.005 27.56A46 46 0 0 0 8.391 32.873L8.323 33.045 8.292 33.125A43 43 0 0 0 7.443 35.403 45 45 0 0 0 6.593 38.164C6.55 38.319 6.501 38.474 6.46 38.63A45 45 0 0 0 5.889 41.115C5.82 41.458 5.766 41.802 5.705 42.146A41 41 0 0 0 5.185 46.134C5.145 46.601 5.104 47.067 5.078 47.535 5.057 47.919 5.052 48.307 5.041 48.693 5.029 49.115 5 49.538 5 49.959L5.001 50 5 50.041C5 50.462 5.029 50.884 5.04 51.306M7.911 50C7.911 49.718 7.927 49.441 7.932 49.16 7.943 48.644 7.952 48.129 7.982 47.615 7.999 47.311 8.028 47.011 8.051 46.708A44 44 0 0 1 8.303 44.31C8.41 43.533 8.531 42.758 8.68 41.989L8.692 41.92A42 42 0 0 1 10.06 36.717L10.075 36.672C10.336 35.888 10.625 35.114 10.932 34.346L11.008 34.141V34.14C11.163 33.759 11.342 33.389 11.508 33.012 11.727 32.516 11.937 32.018 12.178 31.527L12.286 31.321H35.862L31.37 39.046 31.351 39.078 31.309 39.145C31.244 39.248 31.199 39.358 31.163 39.469L25.496 49.262 13.235 70.456A43 43 0 0 1 12.419 68.928C12.342 68.774 12.255 68.625 12.18 68.47 11.938 67.977 11.727 67.476 11.507 66.977 11.343 66.603 11.164 66.235 11.011 65.858L10.928 65.637A43 43 0 0 1 10.075 63.323L10.062 63.283A43 43 0 0 1 8.693 58.077L8.682 58.014A42 42 0 0 1 8.051 53.289C8.028 52.988 7.999 52.688 7.982 52.385 7.952 51.87 7.943 51.354 7.932 50.838 7.926 50.558 7.911 50.281 7.911 50M15.334 26.148A42 42 0 0 1 16.541 24.477C16.708 24.258 16.88 24.043 17.051 23.828L17.179 23.668C17.469 23.306 17.765 22.952 18.065 22.601 18.249 22.387 18.431 22.172 18.618 21.962 18.803 21.755 18.994 21.551 19.184 21.347 19.495 21.011 19.808 20.677 20.129 20.353L20.239 20.237 20.374 20.108C20.691 19.794 21.018 19.489 21.346 19.184 21.551 18.994 21.755 18.802 21.963 18.616 22.173 18.428 22.388 18.246 22.602 18.062 22.952 17.762 23.306 17.466 23.668 17.177L23.825 17.05C24.041 16.878 24.257 16.705 24.477 16.537A43 43 0 0 1 26.147 15.331C26.293 15.231 26.435 15.124 26.582 15.026 27.286 14.555 28.012 14.106 28.752 13.673L28.875 13.598 29.091 13.474A43 43 0 0 1 31.08 12.412C31.231 12.336 31.377 12.251 31.529 12.177 32.023 11.935 32.524 11.724 33.023 11.503 33.396 11.339 33.763 11.161 34.14 11.008L34.15 11.004 34.353 10.928A42 42 0 0 1 36.67 10.074L36.722 10.056A42 42 0 0 1 41.917 8.69L42.002 8.675A43 43 0 0 1 46.698 8.048C46.9 8.032 47.101 8.015 47.303 8.002L59.106 28.417H13.883A42 42 0 0 1 15.029 26.579C15.127 26.436 15.233 26.294 15.334 26.148M53.301 8.052A43 43 0 0 1 55.694 8.305C56.466 8.411 57.235 8.531 57.999 8.68L58.082 8.695C59.841 9.04 61.577 9.496 63.278 10.061L63.329 10.078C64.109 10.338 64.879 10.626 65.643 10.931L65.852 11.009 65.859 11.012C66.236 11.165 66.603 11.343 66.975 11.507 67.474 11.728 67.976 11.939 68.47 12.181 68.623 12.255 68.77 12.341 68.922 12.417A43 43 0 0 1 70.907 13.476L71.124 13.601 71.249 13.677C71.989 14.11 72.714 14.559 73.417 15.029 73.564 15.127 73.706 15.234 73.852 15.334 74.421 15.725 74.978 16.126 75.522 16.54 75.741 16.708 75.957 16.88 76.172 17.051L76.331 17.179C76.693 17.469 77.048 17.765 77.398 18.065 77.612 18.248 77.827 18.43 78.037 18.618 78.245 18.804 78.448 18.995 78.653 19.185 78.988 19.496 79.323 19.809 79.646 20.129L79.761 20.239 79.867 20.35C80.189 20.675 80.502 21.01 80.815 21.347 81.005 21.552 81.197 21.756 81.383 21.964 81.57 22.173 81.751 22.387 81.934 22.6 82.234 22.951 82.531 23.306 82.821 23.668L82.953 23.832C83.123 24.046 83.293 24.259 83.459 24.476 83.872 25.019 84.273 25.576 84.663 26.144 84.765 26.292 84.873 26.435 84.972 26.584L85.082 26.761 73.284 47.15 62.879 29.146 50.611 7.926 50.871 7.933C51.374 7.944 51.878 7.953 52.379 7.982 52.689 7.999 52.994 8.028 53.301 8.052M87.82 31.531C88.06 32.02 88.269 32.517 88.488 33.011 88.654 33.389 88.835 33.761 88.99 34.143L89.064 34.342C89.372 35.113 89.663 35.891 89.925 36.678L89.938 36.716A42 42 0 0 1 91.307 41.924L91.318 41.984A43 43 0 0 1 91.95 46.715C91.973 47.014 92.002 47.312 92.018 47.614 92.048 48.134 92.058 48.656 92.069 49.178 92.074 49.453 92.09 49.725 92.09 50.001S92.074 50.548 92.069 50.822C92.058 51.345 92.048 51.867 92.018 52.388 92.001 52.689 91.973 52.986 91.95 53.284A41 41 0 0 1 91.697 55.684 42 42 0 0 1 91.317 58.021L91.307 58.075A42 42 0 0 1 89.937 63.287L89.927 63.318C89.666 64.101 89.377 64.875 89.071 65.642L88.99 65.858C88.836 66.237 88.657 66.606 88.492 66.981 88.272 67.478 88.061 67.978 87.82 68.47L87.691 68.718H64.15L74.54 50.778 86.795 29.6C87.065 30.086 87.329 30.573 87.577 31.065 87.655 31.221 87.743 31.373 87.82 31.531M84.66 73.861A43 43 0 0 1 83.459 75.524C83.296 75.737 83.129 75.947 82.962 76.157L82.816 76.338C82.527 76.699 82.232 77.052 81.933 77.401 81.752 77.612 81.572 77.824 81.387 78.032 81.199 78.242 81.006 78.449 80.813 78.656 80.476 79.019 80.139 79.382 79.791 79.731L79.763 79.761 79.76 79.764C79.401 80.123 79.027 80.469 78.653 80.816 78.448 81.006 78.244 81.198 78.036 81.384S77.616 81.75 77.405 81.931C77.053 82.232 76.697 82.529 76.334 82.82L76.165 82.956C75.953 83.124 75.742 83.293 75.527 83.457 74.985 83.87 74.429 84.27 73.862 84.659 73.713 84.762 73.567 84.871 73.417 84.971 72.719 85.437 72 85.882 71.266 86.312L71.118 86.402 70.909 86.522C70.256 86.896 69.596 87.242 68.933 87.577 68.778 87.655 68.627 87.742 68.472 87.818 67.979 88.059 67.479 88.27 66.981 88.491 66.607 88.656 66.238 88.834 65.86 88.988L65.644 89.069C64.878 89.375 64.105 89.664 63.323 89.925L63.287 89.937A42 42 0 0 1 58.079 91.306L58.019 91.317A43 43 0 0 1 53.289 91.949C53.096 91.964 52.904 91.981 52.711 91.993L40.87 71.621H86.092A43 43 0 0 1 84.973 73.416C84.872 73.566 84.763 73.712 84.66 73.861M46.715 91.95A41 41 0 0 1 44.316 91.697 43 43 0 0 1 41.985 91.318L41.924 91.307A42 42 0 0 1 36.716 89.938L36.681 89.926A43 43 0 0 1 34.35 89.067L34.145 88.99C33.764 88.835 33.392 88.655 33.015 88.489 32.52 88.27 32.022 88.06 31.532 87.82 31.375 87.743 31.223 87.655 31.066 87.576A43 43 0 0 1 29.093 86.523L28.884 86.403 28.739 86.315A42 42 0 0 1 26.586 84.973C26.435 84.872 26.29 84.763 26.14 84.66A41 41 0 0 1 24.476 83.458C24.262 83.295 24.052 83.126 23.841 82.959L23.666 82.818C23.304 82.528 22.949 82.232 22.599 81.932 22.388 81.751 22.176 81.571 21.969 81.386 21.759 81.198 21.553 81.005 21.346 80.813A40 40 0 0 1 20.287 79.806L20.24 79.761 20.214 79.733A41 41 0 0 1 19.185 78.65C18.995 78.445 18.803 78.241 18.618 78.034S18.253 77.614 18.071 77.403C17.769 77.051 17.471 76.694 17.18 76.33L17.046 76.164C16.878 75.952 16.709 75.741 16.544 75.526A42 42 0 0 1 15.337 73.854C15.236 73.707 15.129 73.565 15.03 73.417L14.951 73.29 26.75 52.898 37.089 70.892 37.092 70.898 49.396 92.074 49.176 92.068C48.654 92.057 48.132 92.047 47.611 92.017 47.312 92.001 47.014 91.973 46.715 91.95M39.234 31.324H60.785L71.607 50.049 60.795 68.717H39.188L28.43 49.994z" fill="black"></path></g></svg></g></svg></g></svg></g></svg></g></svg></g><defs><mask></mask></defs><mask><g id="SvgjsG5995"><svg viewBox="0 0 395.52 54.86462478861441" height="54.86462478861441" width="395.52"><g><svg viewBox="0 0 466.19740588469915 64.66865329512893" height="54.86462478861441" width="395.52"><g transform="matrix(1,0,0,1,70.67740588469916,0)"><svg viewBox="0 0 395.52 64.66865329512893" height="64.66865329512893" width="395.52"><g id="SvgjsG5994"><svg viewBox="0 0 395.52 64.66865329512893" height="64.66865329512893" width="395.52" id="SvgjsSvg5993"><g><svg viewBox="0 0 395.52 64.66865329512893" height="64.66865329512893" width="395.52"><g transform="matrix(1,0,0,1,0,0)"><svg width="395.52" viewBox="2.83 -33.84 272.63 44.580000000000005" height="64.66865329512893" data-palette-color="url(#24efe7d8-aa12-43d5-ba94-c289a845ba7d)"><path d="M9.62 0.39L9.62 0.39Q7.86 0.39 6.13-0.02 4.39-0.44 3.08-1.12L3.08-1.12 2.83-6.2 5.03-6.2 6.01-2.69Q7.62-1.46 9.91-1.46L9.91-1.46Q11.62-1.46 12.74-2.32 13.87-3.17 13.87-4.64L13.87-4.64Q13.87-6.01 12.89-6.98 11.91-7.96 9.23-9.13L9.23-9.13Q5.81-10.64 4.42-12.04 3.03-13.43 3.03-15.53L3.03-15.53Q3.03-17.19 4-18.48 4.98-19.78 6.74-20.51 8.5-21.24 10.79-21.24L10.79-21.24Q12.11-21.24 13.48-21.04 14.84-20.85 15.77-20.46L15.77-20.46 16.31-15.53 14.26-15.53 13.04-18.8Q12.55-19.09 11.87-19.26 11.18-19.43 10.4-19.43L10.4-19.43Q8.59-19.43 7.52-18.58 6.45-17.72 6.45-16.41L6.45-16.41Q6.45-14.89 7.57-13.96 8.69-13.04 11.52-11.62L11.52-11.62Q14.75-10.11 16.02-8.72 17.29-7.32 17.29-5.37L17.29-5.37Q17.29-2.88 15.11-1.25 12.94 0.39 9.62 0.39ZM30.47 0L21.19 0 21.09-1.61 24.12-2.29Q24.22-2.88 24.24-3.93 24.27-4.98 24.29-6.84 24.31-8.69 24.31-11.67L24.31-11.67 24.31-17.72Q24.31-19.38 24.29-21.39 24.27-23.39 24.24-25.24 24.22-27.1 24.19-28.42 24.17-29.74 24.17-30.08L24.17-30.08 20.55-30.57 20.46-31.93 26.71-33.84 27.49-33.2Q27.44-31.69 27.41-30.15 27.39-28.61 27.37-26.83 27.34-25.05 27.32-22.88 27.29-20.7 27.29-17.87L27.29-17.87 27.44-17.82Q29.2-19.68 30.81-20.46 32.42-21.24 34.32-21.24L34.32-21.24Q36.03-21.24 37.6-20.36 39.16-19.48 40.18-17.63 41.21-15.77 41.21-12.84L41.21-12.84 41.21-7.47Q41.21-5.66 41.31-4.27 41.4-2.88 41.5-2.29L41.5-2.29 44.53-1.61 44.48 0 35.3 0 35.2-1.61 38.03-2.29Q38.08-2.69 38.11-3.22 38.13-3.76 38.16-4.66 38.18-5.57 38.18-7.03L38.18-7.03 38.18-12.6Q38.18-14.79 37.45-16.14 36.72-17.48 35.54-18.09 34.37-18.7 33.05-18.7L33.05-18.7Q31.35-18.7 29.88-17.85 28.42-16.99 27.34-15.48L27.34-15.48 27.34-8.06Q27.34-5.71 27.41-4.2 27.49-2.69 27.54-2.29L27.54-2.29 30.56-1.61 30.47 0ZM67.38-3.13L67.38-3.13 70.45-2.34 70.45-0.83 64.64 0.49 64.11-0.1 64.16-3.08 64.01-3.13Q62.54-1.17 61.1-0.42 59.66 0.34 57.95 0.34L57.95 0.34Q54.78 0.34 52.56-1.61 50.34-3.56 50.34-7.52L50.34-7.52 50.34-11.77Q50.34-13.23 50.29-14.62 50.24-16.02 50.14-17.33L50.14-17.33 46.82-18.02 46.82-19.48 52.83-21.14 53.51-20.41Q53.46-18.9 53.41-17.29 53.36-15.67 53.36-13.87L53.36-13.87 53.32-8.2Q53.32-4.98 54.8-3.66 56.29-2.34 58.64-2.34L58.64-2.34Q60-2.34 61.49-3.08 62.98-3.81 64.06-5.57L64.06-5.57 64.06-11.43Q64.06-12.5 64.03-13.6 64.01-14.7 63.96-15.67 63.91-16.65 63.81-17.33L63.81-17.33 60.25-18.02 60.25-19.48 66.55-21.14 67.13-20.51Q67.08-19.04 67.06-17.99 67.04-16.94 67.04-15.97 67.04-14.99 67.04-13.72L67.04-13.72 67.04-10.35Q67.04-7.23 67.18-5.54 67.33-3.86 67.38-3.13ZM87.44-3.91L88.27-2.73Q87.3-1.22 85.78-0.44 84.27 0.34 82.66 0.34L82.66 0.34Q79.83 0.34 78-1.42 76.16-3.17 76.16-6.64L76.16-6.64 76.26-18.55 72.84-18.55 72.84-19.43 78.61-24.95 79.34-24.95 79.24-19.68 79.19-7.52Q79.19-4.88 80.31-3.54 81.44-2.2 83.54-2.2L83.54-2.2Q84.71-2.2 85.71-2.69 86.71-3.17 87.44-3.91L87.44-3.91ZM86.76-18.55L77.82-18.55 77.82-20.8 86.76-20.8 86.76-18.55ZM103.6-3.91L104.43-2.73Q103.46-1.22 101.94-0.44 100.43 0.34 98.82 0.34L98.82 0.34Q95.99 0.34 94.16-1.42 92.32-3.17 92.32-6.64L92.32-6.64 92.42-18.55 89-18.55 89-19.43 94.77-24.95 95.5-24.95 95.4-19.68 95.35-7.52Q95.35-4.88 96.47-3.54 97.6-2.2 99.7-2.2L99.7-2.2Q100.87-2.2 101.87-2.69 102.87-3.17 103.6-3.91L103.6-3.91ZM102.92-18.55L93.98-18.55 93.98-20.8 102.92-20.8 102.92-18.55ZM115.81 0.39L115.81 0.39Q113.12 0.39 110.88-0.83 108.63-2.05 107.31-4.39 105.99-6.74 105.99-10.01L105.99-10.01Q105.99-13.53 107.36-16.04 108.73-18.55 110.97-19.92 113.22-21.29 115.76-21.24L115.76-21.24Q119.42-21.19 121.52-18.8 123.62-16.41 123.62-11.72L123.62-11.72 123.62-10.94 108.43-10.94 108.43-12.94 120.89-12.94 120.4-12.45 120.4-13.33Q120.4-16.26 119.08-17.85 117.76-19.43 115.37-19.43L115.37-19.43Q113.95-19.43 112.61-18.58 111.27-17.72 110.41-16.02 109.56-14.31 109.56-11.72L109.56-11.72 109.56-11.23Q109.56-7.08 111.58-4.79 113.61-2.49 116.74-2.49L116.74-2.49Q118.54-2.49 119.88-3.17 121.23-3.86 122.5-5.42L122.5-5.42 123.67-4.39Q122.3-1.95 120.3-0.78 118.3 0.39 115.81 0.39ZM137.88 0L127.33 0 127.23-1.61 130.26-2.29Q130.31-2.59 130.33-3.2 130.36-3.81 130.38-4.91 130.4-6.01 130.4-7.62L130.4-7.62 130.4-11.47Q130.4-13.18 130.31-14.87 130.21-16.55 130.06-17.33L130.06-17.33 126.94-18.02 126.94-19.48 132.9-21.14 133.48-20.51 133.24-16.36 133.38-16.31Q134.9-19.19 136.41-20.19 137.92-21.19 139.19-21.19L139.19-21.19Q140.27-21.19 140.98-20.65 141.68-20.12 141.68-19.14L141.68-19.14Q141.68-18.12 140.95-17.58 140.22-17.04 139.05-17.04L139.05-17.04Q138.22-17.04 137.46-17.43 136.7-17.82 136.12-18.41L136.12-18.41 136.8-18.07Q135.87-17.43 134.99-16.31 134.12-15.19 133.38-13.53L133.38-13.53 133.43-8.79Q133.48-7.71 133.53-6.45 133.58-5.18 133.63-4.05 133.68-2.93 133.73-2.29L133.73-2.29 137.97-1.71 137.88 0ZM153.55 0.44L153.55 0.44Q151.4 0.44 149.2-0.07 147-0.59 145.64-1.37L145.64-1.37 145.39-7.42 147.2-7.62 148.47-3.47Q149.74-2.69 151.18-2.25 152.62-1.81 154.33-1.81L154.33-1.81Q156.77-1.81 158.33-3.03 159.89-4.25 159.89-6.4L159.89-6.4Q159.89-8.15 158.84-9.3 157.8-10.45 156.16-11.33 154.52-12.21 152.69-13.04 150.86-13.87 149.23-14.94 147.59-16.02 146.54-17.53 145.49-19.04 145.49-21.34L145.49-21.34Q145.49-23.63 146.78-25.39 148.08-27.15 150.32-28.15 152.57-29.15 155.45-29.15L155.45-29.15Q156.77-29.15 157.92-29.03 159.06-28.91 160.07-28.66 161.07-28.42 161.85-28.03L161.85-28.03 162.19-22.27 160.38-22.07 159.06-25.98Q157.55-27 154.91-27L154.91-27Q152.33-27 150.76-25.73 149.2-24.46 149.2-22.46L149.2-22.46Q149.2-20.65 150.25-19.41 151.3-18.16 152.94-17.26 154.57-16.36 156.4-15.53 158.23-14.7 159.87-13.65 161.51-12.6 162.56-11.13 163.61-9.67 163.61-7.47L163.61-7.47Q163.61-5.22 162.31-3.44 161.02-1.66 158.75-0.61 156.48 0.44 153.55 0.44ZM177.57 10.74L167.27 10.74 167.17 9.13 170.19 8.45Q170.19 8.2 170.22 7.67 170.24 7.13 170.27 6.2 170.29 5.27 170.32 3.98 170.34 2.69 170.34 0.93L170.34 0.93 170.44-11.77Q170.44-13.28 170.34-14.92 170.24-16.55 170.1-17.33L170.1-17.33 166.97-18.02 166.97-19.48 172.93-21.14 173.61-20.41 173.37-17.82 173.52-17.77Q174.98-19.53 176.57-20.39 178.15-21.24 180.06-21.24L180.06-21.24Q182.84-21.24 184.94-19.87 187.04-18.51 188.21-16.16 189.38-13.82 189.38-10.84L189.38-10.84Q189.38-7.62 187.92-5.08 186.45-2.54 183.99-1.1 181.52 0.34 178.5 0.34L178.5 0.34Q177.23 0.34 175.88 0.1 174.54-0.15 173.47-0.59L173.47-0.59 173.47 3.27Q173.47 5.22 173.54 6.47 173.61 7.71 173.66 8.45L173.66 8.45 177.67 8.98 177.57 10.74ZM178.69-1.76L178.69-1.76Q180.79-1.76 182.35-2.76 183.92-3.76 184.82-5.64 185.72-7.52 185.77-10.11L185.77-10.11Q185.82-12.4 184.99-14.28 184.16-16.16 182.65-17.33 181.13-18.51 179.13-18.51L179.13-18.51Q177.47-18.51 176.05-17.72 174.64-16.94 173.47-15.38L173.47-15.38 173.47-3.37Q174.49-2.64 175.88-2.2 177.27-1.76 178.69-1.76ZM202.47 0L193.19 0 193.09-1.61 196.12-2.29Q196.22-2.88 196.24-3.93 196.27-4.98 196.29-6.84 196.32-8.69 196.32-11.67L196.32-11.67 196.32-17.72Q196.32-19.38 196.29-21.39 196.27-23.39 196.24-25.24 196.22-27.1 196.19-28.42 196.17-29.74 196.17-30.08L196.17-30.08 192.56-30.57 192.46-31.93 198.71-33.84 199.49-33.2Q199.44-31.69 199.42-30.15 199.39-28.61 199.37-26.83 199.34-25.05 199.32-22.88 199.29-20.7 199.29-17.87L199.29-17.87 199.44-17.82Q201.2-19.68 202.81-20.46 204.42-21.24 206.33-21.24L206.33-21.24Q208.03-21.24 209.6-20.36 211.16-19.48 212.18-17.63 213.21-15.77 213.21-12.84L213.21-12.84 213.21-7.47Q213.21-5.66 213.31-4.27 213.41-2.88 213.5-2.29L213.5-2.29 216.53-1.61 216.48 0 207.3 0 207.2-1.61 210.04-2.29Q210.08-2.69 210.11-3.22 210.13-3.76 210.16-4.66 210.18-5.57 210.18-7.03L210.18-7.03 210.18-12.6Q210.18-14.79 209.45-16.14 208.72-17.48 207.55-18.09 206.37-18.7 205.06-18.7L205.06-18.7Q203.35-18.7 201.88-17.85 200.42-16.99 199.34-15.48L199.34-15.48 199.34-8.06Q199.34-5.71 199.42-4.2 199.49-2.69 199.54-2.29L199.54-2.29 202.57-1.61 202.47 0ZM229.81 0.39L229.81 0.39Q227.12 0.39 224.88-0.83 222.63-2.05 221.31-4.39 219.99-6.74 219.99-10.01L219.99-10.01Q219.99-13.53 221.36-16.04 222.73-18.55 224.98-19.92 227.22-21.29 229.76-21.24L229.76-21.24Q233.42-21.19 235.52-18.8 237.62-16.41 237.62-11.72L237.62-11.72 237.62-10.94 222.44-10.94 222.44-12.94 234.89-12.94 234.4-12.45 234.4-13.33Q234.4-16.26 233.08-17.85 231.76-19.43 229.37-19.43L229.37-19.43Q227.95-19.43 226.61-18.58 225.27-17.72 224.41-16.02 223.56-14.31 223.56-11.72L223.56-11.72 223.56-11.23Q223.56-7.08 225.59-4.79 227.61-2.49 230.74-2.49L230.74-2.49Q232.54-2.49 233.89-3.17 235.23-3.86 236.5-5.42L236.5-5.42 237.67-4.39Q236.3-1.95 234.3-0.78 232.3 0.39 229.81 0.39ZM251.88 0L241.33 0 241.23-1.61 244.26-2.29Q244.31-2.59 244.33-3.2 244.36-3.81 244.38-4.91 244.41-6.01 244.41-7.62L244.41-7.62 244.41-11.47Q244.41-13.18 244.31-14.87 244.21-16.55 244.06-17.33L244.06-17.33 240.94-18.02 240.94-19.48 246.9-21.14 247.48-20.51 247.24-16.36 247.38-16.31Q248.9-19.19 250.41-20.19 251.93-21.19 253.2-21.19L253.2-21.19Q254.27-21.19 254.98-20.65 255.69-20.12 255.69-19.14L255.69-19.14Q255.69-18.12 254.95-17.58 254.22-17.04 253.05-17.04L253.05-17.04Q252.22-17.04 251.46-17.43 250.7-17.82 250.12-18.41L250.12-18.41 250.8-18.07Q249.87-17.43 249-16.31 248.12-15.19 247.38-13.53L247.38-13.53 247.43-8.79Q247.48-7.71 247.53-6.45 247.58-5.18 247.63-4.05 247.68-2.93 247.73-2.29L247.73-2.29 251.97-1.71 251.88 0ZM267.6 0.39L267.6 0.39Q264.91 0.39 262.67-0.83 260.42-2.05 259.1-4.39 257.78-6.74 257.78-10.01L257.78-10.01Q257.78-13.53 259.15-16.04 260.52-18.55 262.76-19.92 265.01-21.29 267.55-21.24L267.55-21.24Q271.21-21.19 273.31-18.8 275.41-16.41 275.41-11.72L275.41-11.72 275.41-10.94 260.22-10.94 260.22-12.94 272.68-12.94 272.19-12.45 272.19-13.33Q272.19-16.26 270.87-17.85 269.55-19.43 267.16-19.43L267.16-19.43Q265.74-19.43 264.4-18.58 263.06-17.72 262.2-16.02 261.35-14.31 261.35-11.72L261.35-11.72 261.35-11.23Q261.35-7.08 263.37-4.79 265.4-2.49 268.52-2.49L268.52-2.49Q270.33-2.49 271.67-3.17 273.02-3.86 274.29-5.42L274.29-5.42 275.46-4.39Q274.09-1.95 272.09-0.78 270.09 0.39 267.6 0.39Z" opacity="1" transform="matrix(1,0,0,1,0,0)" fill="black" class="wordmark-text-0" id="SvgjsPath5992"></path></svg></g></svg></g></svg></g></svg></g><g transform="matrix(1,0,0,1,0,4.628982202865323)"><svg viewBox="0 0 55.410688889398294 55.41068888939829" height="55.41068888939829" width="55.410688889398294"><g><svg></svg></g><g id="SvgjsG5991"><svg viewBox="0 0 55.410688889398294 55.41068888939829" height="55.41068888939829" width="55.410688889398294"><g><path transform="scale(0.55411,0.55411)" d="M30 100c-16.569 0-30-13.431-30-30v-40c0-16.569 13.431-30 30-30h40c16.569 0 30 13.431 30 30v40c0 16.569-13.431 30-30 30z" fill="black" fill-rule="nonzero" stroke="none" stroke-width="1" stroke-linecap="butt" stroke-linejoin="miter" stroke-miterlimit="10" stroke-dasharray="" stroke-dashoffset="0" font-family="none" font-weight="none" font-size="none" text-anchor="none" style="mix-blend-mode: normal"></path></g><g transform="matrix(1,0,0,1,11.082137777879662,11.08232247401942)"><svg viewBox="0 0 33.24641333363897 33.246043941359446" height="33.246043941359446" width="33.24641333363897"><g><svg xmlns="http://www.w3.org/2000/svg" xmlns:xlink="http://www.w3.org/1999/xlink" version="1.1" x="0" y="0" viewBox="5 5 90.003 90.002" enable-background="new 0 0 100 100" xml:space="preserve" height="33.246043941359446" width="33.24641333363897" class="icon-dxe-0" data-fill-palette-color="quaternary" id="SvgjsSvg5990"><g fill="black"><path d="M5.04 51.306C5.051 51.693 5.056 52.082 5.077 52.467 5.102 52.933 5.143 53.399 5.183 53.865A43 43 0 0 0 5.465 56.376C5.536 56.874 5.619 57.368 5.706 57.861 5.766 58.202 5.82 58.543 5.888 58.882 6.056 59.721 6.246 60.552 6.46 61.374 6.499 61.523 6.546 61.671 6.587 61.82 6.788 62.562 7.009 63.295 7.247 64.021 7.309 64.211 7.374 64.399 7.439 64.589 7.704 65.362 7.988 66.126 8.293 66.88L8.323 66.957 8.389 67.124A45 45 0 0 0 11.004 72.439L11.035 72.497 11.119 72.632C11.413 73.135 11.716 73.632 12.029 74.123L12.06 74.174 12.061 74.175C12.226 74.434 12.389 74.694 12.559 74.95 12.91 75.476 13.275 75.991 13.647 76.501 13.875 76.814 14.103 77.126 14.339 77.433 14.501 77.644 14.671 77.847 14.836 78.054 15.048 78.319 15.258 78.584 15.475 78.844 15.713 79.129 15.952 79.414 16.198 79.694 16.345 79.862 16.494 80.027 16.643 80.193 16.817 80.385 17 80.569 17.177 80.759 17.507 81.111 17.833 81.464 18.175 81.806L18.194 81.825C18.535 82.166 18.887 82.491 19.237 82.819 19.427 82.998 19.613 83.182 19.807 83.357 19.973 83.507 20.139 83.656 20.307 83.804 20.586 84.049 20.869 84.287 21.153 84.524 21.413 84.742 21.679 84.952 21.944 85.164 22.153 85.33 22.356 85.5 22.568 85.663 22.875 85.899 23.186 86.127 23.498 86.354 24.008 86.726 24.523 87.092 25.049 87.443 25.322 87.625 25.599 87.798 25.876 87.973 26.366 88.285 26.862 88.588 27.365 88.882L27.502 88.967 27.562 88.999A45 45 0 0 0 32.874 91.612L33.043 91.679 33.117 91.708C33.87 92.013 34.634 92.297 35.407 92.562 35.597 92.627 35.787 92.693 35.978 92.755 36.703 92.993 37.435 93.213 38.175 93.414 38.325 93.455 38.474 93.502 38.624 93.542 39.446 93.756 40.277 93.946 41.116 94.114 41.455 94.182 41.795 94.236 42.135 94.296 42.629 94.383 43.124 94.466 43.624 94.537A43 43 0 0 0 46.138 94.818C46.603 94.858 47.067 94.899 47.532 94.924 47.921 94.945 48.314 94.95 48.705 94.962 49.123 94.974 49.541 95.002 49.959 95.002L50 94.999 50.041 95C50.458 95 50.876 94.972 51.294 94.96 51.443 94.956 51.592 94.954 51.74 94.949L51.877 94.963 52.106 94.94C52.226 94.934 52.347 94.93 52.467 94.923 52.931 94.898 53.395 94.857 53.859 94.817A43 43 0 0 0 56.373 94.535C56.874 94.464 57.37 94.38 57.865 94.293 58.204 94.233 58.543 94.18 58.881 94.112 59.721 93.944 60.553 93.753 61.375 93.539 61.523 93.5 61.671 93.453 61.819 93.413A45 45 0 0 0 66.884 91.705L66.957 91.677 67.124 91.611A45 45 0 0 0 72.439 88.996L72.498 88.964 72.634 88.879C73.137 88.585 73.634 88.282 74.125 87.969 74.401 87.794 74.678 87.621 74.95 87.44A44 44 0 0 0 76.503 86.35C76.815 86.123 77.126 85.895 77.432 85.66 77.644 85.498 77.847 85.327 78.055 85.162 78.32 84.95 78.586 84.74 78.846 84.522 79.13 84.284 79.414 84.047 79.693 83.802 79.861 83.655 80.027 83.505 80.193 83.356 80.386 83.181 80.571 82.998 80.761 82.819 81.112 82.49 81.464 82.165 81.805 81.824L81.825 81.804C82.166 81.463 82.492 81.11 82.82 80.76 82.998 80.57 83.182 80.385 83.357 80.192A35 35 0 0 0 84.524 78.845C84.742 78.585 84.952 78.319 85.164 78.054 85.33 77.846 85.5 77.643 85.662 77.431 85.897 77.126 86.123 76.816 86.349 76.506 86.723 75.994 87.089 75.477 87.442 74.949 87.623 74.676 87.796 74.4 87.971 74.123 88.283 73.633 88.586 73.136 88.88 72.633L88.965 72.496 88.997 72.436A50 50 0 0 0 89.744 71.091C89.88 70.928 89.981 70.736 90.035 70.523A45 45 0 0 0 91.612 67.121L91.678 66.955 91.707 66.882A45 45 0 0 0 92.754 64.023C92.993 63.295 93.214 62.559 93.416 61.815 93.456 61.668 93.502 61.522 93.541 61.375 93.755 60.552 93.946 59.72 94.114 58.88 94.182 58.543 94.235 58.204 94.295 57.866A43 43 0 0 0 94.7 55.09C94.746 54.681 94.784 54.27 94.819 53.858 94.859 53.394 94.9 52.931 94.925 52.467 94.946 52.078 94.951 51.684 94.963 51.292 94.975 50.875 95.003 50.457 95.003 50.04L94.999 50 95 49.959C95 49.542 94.972 49.123 94.96 48.705 94.949 48.314 94.944 47.921 94.923 47.533 94.898 47.068 94.857 46.604 94.817 46.139A45 45 0 0 0 94.699 44.911 47 47 0 0 0 94.536 43.625 45 45 0 0 0 94.295 42.139C94.235 41.798 94.181 41.457 94.113 41.117A45 45 0 0 0 93.541 38.627C93.501 38.475 93.454 38.325 93.412 38.174A45 45 0 0 0 91.708 33.123L91.678 33.045 91.611 32.876A45 45 0 0 0 89.297 28.091C89.199 27.914 89.098 27.738 88.998 27.563L88.967 27.505 88.882 27.368A46 46 0 0 0 88.139 26.137 1.5 1.5 0 0 0 87.8 25.593 46 46 0 0 0 86.36 23.507 45 45 0 0 0 85.664 22.57C85.501 22.358 85.331 22.155 85.165 21.946 84.954 21.682 84.744 21.417 84.527 21.158A35 35 0 0 0 83.359 19.81C83.185 19.617 83.002 19.433 82.824 19.243 82.495 18.892 82.168 18.539 81.826 18.197L81.807 18.178C81.465 17.835 81.111 17.509 80.759 17.179 80.57 17.002 80.387 16.82 80.195 16.646 80.029 16.496 79.864 16.347 79.696 16.2 79.416 15.954 79.131 15.715 78.845 15.476 78.586 15.259 78.321 15.05 78.057 14.839 77.849 14.674 77.646 14.504 77.435 14.341 77.123 14.101 76.806 13.869 76.488 13.638A45 45 0 0 0 74.953 12.561C74.678 12.378 74.4 12.204 74.122 12.028 73.632 11.716 73.136 11.413 72.634 11.12L72.499 11.036 72.442 11.006C72.265 10.905 72.089 10.804 71.911 10.705A45 45 0 0 0 67.129 8.392L66.957 8.324 66.876 8.292A45 45 0 0 0 61.842 6.594C61.684 6.551 61.528 6.501 61.37 6.46A45 45 0 0 0 58.89 5.89C58.542 5.82 58.193 5.765 57.845 5.703 57.361 5.618 56.875 5.536 56.386 5.466A43 43 0 0 0 53.879 5.184 45 45 0 0 0 52.463 5.076C52.092 5.056 51.718 5.051 51.344 5.04 50.908 5.029 50.474 5 50.041 5L50 5.001 49.959 5C49.525 5 49.091 5.029 48.657 5.041 48.284 5.052 47.91 5.057 47.539 5.077 47.066 5.103 46.594 5.144 46.121 5.185 45.72 5.219 45.32 5.256 44.923 5.3 44.486 5.349 44.05 5.404 43.613 5.466 43.125 5.535 42.642 5.617 42.159 5.702 41.809 5.764 41.459 5.819 41.109 5.889 40.275 6.056 39.449 6.245 38.632 6.458 38.471 6.5 38.311 6.551 38.149 6.595A45 45 0 0 0 33.126 8.29L33.044 8.322 32.868 8.392A45 45 0 0 0 27.559 11.004L27.502 11.035 27.367 11.119C26.865 11.412 26.369 11.715 25.88 12.026 25.602 12.203 25.322 12.377 25.047 12.56 24.524 12.909 24.012 13.272 23.505 13.642 23.19 13.871 22.876 14.101 22.566 14.339 22.354 14.501 22.152 14.671 21.944 14.837 21.68 15.048 21.414 15.258 21.155 15.475A35 35 0 0 0 19.807 16.643C19.614 16.818 19.429 17.001 19.239 17.179 18.888 17.508 18.536 17.834 18.194 18.175L18.175 18.194C17.833 18.536 17.506 18.889 17.177 19.241 17 19.43 16.817 19.615 16.643 19.807A45 45 0 0 0 15.474 21.157C15.257 21.416 15.048 21.681 14.837 21.945 14.672 22.153 14.502 22.356 14.34 22.567 14.101 22.878 13.87 23.193 13.64 23.51A45 45 0 0 0 12.56 25.049C12.377 25.324 12.203 25.603 12.027 25.881 11.715 26.371 11.413 26.866 11.119 27.369L11.035 27.504 11.005 27.56A46 46 0 0 0 8.391 32.873L8.323 33.045 8.292 33.125A43 43 0 0 0 7.443 35.403 45 45 0 0 0 6.593 38.164C6.55 38.319 6.501 38.474 6.46 38.63A45 45 0 0 0 5.889 41.115C5.82 41.458 5.766 41.802 5.705 42.146A41 41 0 0 0 5.185 46.134C5.145 46.601 5.104 47.067 5.078 47.535 5.057 47.919 5.052 48.307 5.041 48.693 5.029 49.115 5 49.538 5 49.959L5.001 50 5 50.041C5 50.462 5.029 50.884 5.04 51.306M7.911 50C7.911 49.718 7.927 49.441 7.932 49.16 7.943 48.644 7.952 48.129 7.982 47.615 7.999 47.311 8.028 47.011 8.051 46.708A44 44 0 0 1 8.303 44.31C8.41 43.533 8.531 42.758 8.68 41.989L8.692 41.92A42 42 0 0 1 10.06 36.717L10.075 36.672C10.336 35.888 10.625 35.114 10.932 34.346L11.008 34.141V34.14C11.163 33.759 11.342 33.389 11.508 33.012 11.727 32.516 11.937 32.018 12.178 31.527L12.286 31.321H35.862L31.37 39.046 31.351 39.078 31.309 39.145C31.244 39.248 31.199 39.358 31.163 39.469L25.496 49.262 13.235 70.456A43 43 0 0 1 12.419 68.928C12.342 68.774 12.255 68.625 12.18 68.47 11.938 67.977 11.727 67.476 11.507 66.977 11.343 66.603 11.164 66.235 11.011 65.858L10.928 65.637A43 43 0 0 1 10.075 63.323L10.062 63.283A43 43 0 0 1 8.693 58.077L8.682 58.014A42 42 0 0 1 8.051 53.289C8.028 52.988 7.999 52.688 7.982 52.385 7.952 51.87 7.943 51.354 7.932 50.838 7.926 50.558 7.911 50.281 7.911 50M15.334 26.148A42 42 0 0 1 16.541 24.477C16.708 24.258 16.88 24.043 17.051 23.828L17.179 23.668C17.469 23.306 17.765 22.952 18.065 22.601 18.249 22.387 18.431 22.172 18.618 21.962 18.803 21.755 18.994 21.551 19.184 21.347 19.495 21.011 19.808 20.677 20.129 20.353L20.239 20.237 20.374 20.108C20.691 19.794 21.018 19.489 21.346 19.184 21.551 18.994 21.755 18.802 21.963 18.616 22.173 18.428 22.388 18.246 22.602 18.062 22.952 17.762 23.306 17.466 23.668 17.177L23.825 17.05C24.041 16.878 24.257 16.705 24.477 16.537A43 43 0 0 1 26.147 15.331C26.293 15.231 26.435 15.124 26.582 15.026 27.286 14.555 28.012 14.106 28.752 13.673L28.875 13.598 29.091 13.474A43 43 0 0 1 31.08 12.412C31.231 12.336 31.377 12.251 31.529 12.177 32.023 11.935 32.524 11.724 33.023 11.503 33.396 11.339 33.763 11.161 34.14 11.008L34.15 11.004 34.353 10.928A42 42 0 0 1 36.67 10.074L36.722 10.056A42 42 0 0 1 41.917 8.69L42.002 8.675A43 43 0 0 1 46.698 8.048C46.9 8.032 47.101 8.015 47.303 8.002L59.106 28.417H13.883A42 42 0 0 1 15.029 26.579C15.127 26.436 15.233 26.294 15.334 26.148M53.301 8.052A43 43 0 0 1 55.694 8.305C56.466 8.411 57.235 8.531 57.999 8.68L58.082 8.695C59.841 9.04 61.577 9.496 63.278 10.061L63.329 10.078C64.109 10.338 64.879 10.626 65.643 10.931L65.852 11.009 65.859 11.012C66.236 11.165 66.603 11.343 66.975 11.507 67.474 11.728 67.976 11.939 68.47 12.181 68.623 12.255 68.77 12.341 68.922 12.417A43 43 0 0 1 70.907 13.476L71.124 13.601 71.249 13.677C71.989 14.11 72.714 14.559 73.417 15.029 73.564 15.127 73.706 15.234 73.852 15.334 74.421 15.725 74.978 16.126 75.522 16.54 75.741 16.708 75.957 16.88 76.172 17.051L76.331 17.179C76.693 17.469 77.048 17.765 77.398 18.065 77.612 18.248 77.827 18.43 78.037 18.618 78.245 18.804 78.448 18.995 78.653 19.185 78.988 19.496 79.323 19.809 79.646 20.129L79.761 20.239 79.867 20.35C80.189 20.675 80.502 21.01 80.815 21.347 81.005 21.552 81.197 21.756 81.383 21.964 81.57 22.173 81.751 22.387 81.934 22.6 82.234 22.951 82.531 23.306 82.821 23.668L82.953 23.832C83.123 24.046 83.293 24.259 83.459 24.476 83.872 25.019 84.273 25.576 84.663 26.144 84.765 26.292 84.873 26.435 84.972 26.584L85.082 26.761 73.284 47.15 62.879 29.146 50.611 7.926 50.871 7.933C51.374 7.944 51.878 7.953 52.379 7.982 52.689 7.999 52.994 8.028 53.301 8.052M87.82 31.531C88.06 32.02 88.269 32.517 88.488 33.011 88.654 33.389 88.835 33.761 88.99 34.143L89.064 34.342C89.372 35.113 89.663 35.891 89.925 36.678L89.938 36.716A42 42 0 0 1 91.307 41.924L91.318 41.984A43 43 0 0 1 91.95 46.715C91.973 47.014 92.002 47.312 92.018 47.614 92.048 48.134 92.058 48.656 92.069 49.178 92.074 49.453 92.09 49.725 92.09 50.001S92.074 50.548 92.069 50.822C92.058 51.345 92.048 51.867 92.018 52.388 92.001 52.689 91.973 52.986 91.95 53.284A41 41 0 0 1 91.697 55.684 42 42 0 0 1 91.317 58.021L91.307 58.075A42 42 0 0 1 89.937 63.287L89.927 63.318C89.666 64.101 89.377 64.875 89.071 65.642L88.99 65.858C88.836 66.237 88.657 66.606 88.492 66.981 88.272 67.478 88.061 67.978 87.82 68.47L87.691 68.718H64.15L74.54 50.778 86.795 29.6C87.065 30.086 87.329 30.573 87.577 31.065 87.655 31.221 87.743 31.373 87.82 31.531M84.66 73.861A43 43 0 0 1 83.459 75.524C83.296 75.737 83.129 75.947 82.962 76.157L82.816 76.338C82.527 76.699 82.232 77.052 81.933 77.401 81.752 77.612 81.572 77.824 81.387 78.032 81.199 78.242 81.006 78.449 80.813 78.656 80.476 79.019 80.139 79.382 79.791 79.731L79.763 79.761 79.76 79.764C79.401 80.123 79.027 80.469 78.653 80.816 78.448 81.006 78.244 81.198 78.036 81.384S77.616 81.75 77.405 81.931C77.053 82.232 76.697 82.529 76.334 82.82L76.165 82.956C75.953 83.124 75.742 83.293 75.527 83.457 74.985 83.87 74.429 84.27 73.862 84.659 73.713 84.762 73.567 84.871 73.417 84.971 72.719 85.437 72 85.882 71.266 86.312L71.118 86.402 70.909 86.522C70.256 86.896 69.596 87.242 68.933 87.577 68.778 87.655 68.627 87.742 68.472 87.818 67.979 88.059 67.479 88.27 66.981 88.491 66.607 88.656 66.238 88.834 65.86 88.988L65.644 89.069C64.878 89.375 64.105 89.664 63.323 89.925L63.287 89.937A42 42 0 0 1 58.079 91.306L58.019 91.317A43 43 0 0 1 53.289 91.949C53.096 91.964 52.904 91.981 52.711 91.993L40.87 71.621H86.092A43 43 0 0 1 84.973 73.416C84.872 73.566 84.763 73.712 84.66 73.861M46.715 91.95A41 41 0 0 1 44.316 91.697 43 43 0 0 1 41.985 91.318L41.924 91.307A42 42 0 0 1 36.716 89.938L36.681 89.926A43 43 0 0 1 34.35 89.067L34.145 88.99C33.764 88.835 33.392 88.655 33.015 88.489 32.52 88.27 32.022 88.06 31.532 87.82 31.375 87.743 31.223 87.655 31.066 87.576A43 43 0 0 1 29.093 86.523L28.884 86.403 28.739 86.315A42 42 0 0 1 26.586 84.973C26.435 84.872 26.29 84.763 26.14 84.66A41 41 0 0 1 24.476 83.458C24.262 83.295 24.052 83.126 23.841 82.959L23.666 82.818C23.304 82.528 22.949 82.232 22.599 81.932 22.388 81.751 22.176 81.571 21.969 81.386 21.759 81.198 21.553 81.005 21.346 80.813A40 40 0 0 1 20.287 79.806L20.24 79.761 20.214 79.733A41 41 0 0 1 19.185 78.65C18.995 78.445 18.803 78.241 18.618 78.034S18.253 77.614 18.071 77.403C17.769 77.051 17.471 76.694 17.18 76.33L17.046 76.164C16.878 75.952 16.709 75.741 16.544 75.526A42 42 0 0 1 15.337 73.854C15.236 73.707 15.129 73.565 15.03 73.417L14.951 73.29 26.75 52.898 37.089 70.892 37.092 70.898 49.396 92.074 49.176 92.068C48.654 92.057 48.132 92.047 47.611 92.017 47.312 92.001 47.014 91.973 46.715 91.95M39.234 31.324H60.785L71.607 50.049 60.795 68.717H39.188L28.43 49.994z" fill="black"></path></g></svg></g></svg></g></svg></g></svg></g></svg></g><defs><mask></mask></defs></svg><rect width="395.52" height="54.86462478861441" fill="black" stroke="none" visibility="hidden"></rect></g></mask></svg><rect width="395.52" height="54.86462478861441" fill="black" stroke="none" visibility="hidden"></rect></g></mask><linearGradient x1="0" x2="1" y1="0.548" y2="0.55" id="c9b3bf2e-96c1-47a0-a16c-db614a269489"><stop stop-color="#ff6cab" offset="0"></stop><stop stop-color="#7366ff" offset="1"></stop></linearGradient><rect width="395.52" height="54.86462478861441" fill="url(#c9b3bf2e-96c1-47a0-a16c-db614a269489)" mask="url(#86b46640-e131-4962-9688-0ae068f352de)" data-fill-palette-color="accent"></rect></svg><rect width="395.52" height="54.86462478861441" fill="none" stroke="none" visibility="hidden"></rect></g></svg></g></svg>